<?xml version="1.0" encoding="UTF-8"?>
<svg width="1520px" height="895px" viewBox="0 0 1520 895" version="1.1" xmlns="http://www.w3.org/2000/svg" xmlns:xlink="http://www.w3.org/1999/xlink">
    <!-- Generator: Sketch 49 (51002) - http://www.bohemiancoding.com/sketch -->
    <title>Slice</title>
    <desc>Created with Sketch.</desc>
    <defs>
        <rect id="path-1" x="0" y="0" width="190" height="350" rx="6"></rect>
        <circle id="path-3" cx="20" cy="20" r="20"></circle>
    </defs>
    <g id="final_v1" stroke="none" stroke-width="1" fill="none" fill-rule="evenodd">
        <g id="Group-18" transform="translate(1047.000000, 32.000000)">
            <g id="Bg">
                <mask id="mask-2" fill="white">
                    <use xlink:href="#path-1"></use>
                </mask>
                <use id="Mask" stroke="#A9BBC9" fill="#FFFFFF" xlink:href="#path-1"></use>
                <path d="M-6.97460938,251.914063 C-6.97460938,251.914063 16.3600649,274.535473 29.5703125,272.130859 C42.7805601,269.726246 47.9003906,254.680713 66.0195312,254.680713 C84.1386719,254.680713 91.5449219,303.84427 110.439453,303.84427 C129.333984,303.84427 128.901338,227.905981 148.640625,224.791958 C168.379912,221.677936 169.385593,260.655254 180.542969,272.130859 C191.700344,283.606464 187.874136,275.174843 193.032897,262.173765 C198.191659,249.172687 212.639413,207.466551 217.181517,216.653947 C221.72362,225.841343 227.572671,391.194717 228.994667,392.295624 C229.763633,392.890957 147.238069,387.915223 71.2786838,383.219609 C6.77159881,379.231947 -53,375.446306 -53,375.446306 L-6.97460938,251.914063 Z" id="Shape" stroke="#A9BBC9" fill="#FAFAFA" mask="url(#mask-2)"></path>
                <path d="M0,5.99052906 C0,2.68205122 2.68589973,0 6.00013049,0 L183.99987,0 C187.31365,0 190,2.69184662 190,5.99052906 L190,177 L0,177 L0,5.99052906 Z" id="Rectangle" stroke="#A9BBC9" fill="#FAFAFA" mask="url(#mask-2)"></path>
            </g>
            <g id="Shape" transform="translate(10.000000, 187.000000)" stroke="#A9BBC9">
                <path d="M154,1.99961498 C154,0.895258123 154.894514,0 155.99406,0 L168.00594,0 C169.107229,0 170,0.88743329 170,1.99961498 L170,8.00038502 C170,9.10474188 169.105486,10 168.00594,10 L155.99406,10 C154.892771,10 154,9.11256671 154,8.00038502 L154,1.99961498 Z" id="Rectangle" fill="#FAFAFA"></path>
                <path d="M154,16.999615 C154,15.8952581 154.894514,15 155.99406,15 L168.00594,15 C169.107229,15 170,15.8874333 170,16.999615 L170,23.000385 C170,24.1047419 169.105486,25 168.00594,25 L155.99406,25 C154.892771,25 154,24.1125667 154,23.000385 L154,16.999615 Z" id="Rectangle" fill="#FFFFFF"></path>
                <path d="M0,1.99961498 C0,0.895258123 0.891374564,0 2.00032778,0 L74.9996722,0 C76.1044227,0 77,0.88743329 77,1.99961498 L77,8.00038502 C77,9.10474188 76.1086254,10 74.9996722,10 L2.00032778,10 C0.89557725,10 0,9.11256671 0,8.00038502 L0,1.99961498 Z" id="Rectangle" fill="#FAFAFA"></path>
                <path d="M0,16.999615 C0,15.8952581 0.889064278,15 1.99091407,15 L48.0090859,15 C49.1086374,15 50,15.8874333 50,16.999615 L50,23.000385 C50,24.1047419 49.1109357,25 48.0090859,25 L1.99091407,25 C0.891362589,25 0,24.1125667 0,23.000385 L0,16.999615 Z" id="Rectangle" fill="#FFFFFF"></path>
            </g>
            <circle id="Shape" stroke="#F34A00" fill="#FFF3A2" cx="64.5" cy="255.5" r="5.5"></circle>
            <g id="Shape" transform="translate(70.000000, 67.000000)" fill="#FFFFFF" stroke="#A9BBC9">
                <path d="M25,0 C11.2,0 0,11.2 0,25 C0,38.8 11.2,50 25,50 C38.8,50 50,38.8 50,25 C50,11.2 38.8,0 25,0 L25,0 Z M25,7.5 C29.15,7.5 32.5,10.85 32.5,15 C32.5,19.15 29.15,22.5 25,22.5 C20.85,22.5 17.5,19.15 17.5,15 C17.5,10.85 20.85,7.5 25,7.5 L25,7.5 Z M25,43 C18.75,43 13.225,39.8 10,34.95 C10.075,29.975 20,27.25 25,27.25 C29.975,27.25 39.925,29.975 40,34.95 C36.775,39.8 31.25,43 25,43 L25,43 Z"></path>
            </g>
            <text id="Spending-Analysis" font-family="Roboto-Light, Roboto" font-size="16" font-weight="300" line-spacing="20" letter-spacing="-0.400000006" fill="#738694">
                <tspan x="34.5210938" y="375">Spending Analysis</tspan>
            </text>
            <g id="Shape" transform="translate(56.000000, 127.000000)" fill="#FFFFFF" stroke="#A9BBC9">
                <path d="M0,16.999615 C0,15.8952581 0.889685631,15 1.99789694,15 L77.2228062,15 C78.3262142,15 79.2207031,15.8874333 79.2207031,16.999615 L79.2207031,23.000385 C79.2207031,24.1047419 78.3310175,25 77.2228062,25 L1.99789694,25 C0.894488927,25 0,24.1125667 0,23.000385 L0,16.999615 Z" id="Rectangle"></path>
                <path d="M14,1.99961498 C14,0.895258123 14.8964111,0 16.007366,0 L62.4058087,0 C63.5144464,0 64.4131747,0.88743329 64.4131747,1.99961498 L64.4131747,8.00038502 C64.4131747,9.10474188 63.5167637,10 62.4058087,10 L16.007366,10 C14.8987284,10 14,9.11256671 14,8.00038502 L14,1.99961498 Z" id="Rectangle"></path>
            </g>
            <g id="Base-Elements-/-Status-Bar" fill="#FFFFFF" stroke="#A9BBC9">
                <g id="Status-Bar">
                    <path d="M0,6.00065947 C0,2.68658675 2.68988062,0 5.99137027,0 L183.99987,0 L184.004218,0 C187.315597,0 190,2.67653633 190,6.00065947 L190,20 L0,20 L0,6.00065947 Z" id="Combined-Shape"></path>
                    <rect id="Shape" x="81" y="7" width="28" height="7" rx="3.5"></rect>
                    <rect id="Shape" x="165" y="7" width="18" height="7" rx="3.5"></rect>
                    <rect id="Shape" x="155" y="7" width="7" height="7" rx="3.5"></rect>
                    <rect id="Shape" x="7" y="7" width="7" height="7" rx="3.5"></rect>
                    <rect id="Shape" x="17" y="7" width="7" height="7" rx="3.5"></rect>
                    <rect id="Shape" x="27" y="7" width="7" height="7" rx="3.5"></rect>
                </g>
            </g>
            <g id="Nav-Bar" transform="translate(0.000000, 20.000000)" stroke="#A9BBC9">
                <rect id="Rectangle" fill="#FAFAFA" x="0" y="0" width="190" height="30"></rect>
                <path d="M8,10.3125 C8,9.58762627 8.58373854,9 9.31708601,9 L20.682914,9 C21.4103205,9 22,9.58257258 22,10.3125 C22,11.0373737 21.4162615,11.625 20.682914,11.625 L9.31708601,11.625 C8.58967949,11.625 8,11.0424274 8,10.3125 Z M8,14.6875 C8,13.9626263 8.58373854,13.375 9.31708601,13.375 L20.682914,13.375 C21.4103205,13.375 22,13.9575726 22,14.6875 C22,15.4123737 21.4162615,16 20.682914,16 L9.31708601,16 C8.58967949,16 8,15.4174274 8,14.6875 Z M8,19.0625 C8,18.3376263 8.58373854,17.75 9.31708601,17.75 L20.682914,17.75 C21.4103205,17.75 22,18.3325726 22,19.0625 C22,19.7873737 21.4162615,20.375 20.682914,20.375 L9.31708601,20.375 C8.58967949,20.375 8,19.7924274 8,19.0625 Z" id="Combined-Shape" fill="#FFFFFF"></path>
                <path d="M178.835062,15.2438666 C179.116951,14.9619324 179.328447,14.6435528 179.469414,14.2888615 C179.610314,13.9341701 179.680797,13.5726578 179.680797,13.2043244 C179.680797,12.8359911 179.610336,12.4722051 179.469414,12.1129664 C179.328447,11.7537277 179.116929,11.4331413 178.835062,11.1512071 C178.553128,10.869273 178.234748,10.660096 177.880123,10.5236763 C177.525432,10.3872565 177.161646,10.3190466 176.788765,10.3190466 C176.415862,10.3190466 176.052032,10.3872565 175.697407,10.5236763 C175.342716,10.660096 175.024403,10.869273 174.742469,11.1512071 C174.460535,11.4331413 174.249084,11.7537277 174.108117,12.1129664 C173.96715,12.4722051 173.896667,12.8359911 173.896667,13.2043244 C173.896667,13.5726578 173.96715,13.9341701 174.108117,14.2888615 C174.249084,14.6435528 174.460535,14.9618656 174.742469,15.2438666 C175.024403,15.5257562 175.342716,15.7372514 175.697407,15.8782184 C176.052099,16.0191187 176.415885,16.0896022 176.788765,16.0896022 C177.161646,16.0896022 177.525432,16.0191187 177.880123,15.8782184 C178.234815,15.7372291 178.553128,15.5257785 178.835062,15.2438666 Z M180.472099,9.51421468 C180.981466,10.0235151 181.363374,10.5987517 181.618025,11.2399246 C181.872675,11.8810974 182,12.5336385 182,13.197548 C182,13.8614575 181.872675,14.5139986 181.618025,15.1551715 C181.363374,15.7963443 180.981399,16.3715809 180.472099,16.8808813 C180.062906,17.2901406 179.608107,17.617548 179.107901,17.8631036 C178.60774,18.1086591 178.089367,18.272296 177.552716,18.3541478 C177.016132,18.4360665 176.477274,18.4315192 175.936164,18.3405727 C175.395033,18.2496262 174.878844,18.0768278 174.3878,17.8221776 L171.319136,20.8908196 C171.182716,21.0272394 171.032654,21.1272136 170.868951,21.1909431 C170.705247,21.2546056 170.534722,21.2864369 170.357377,21.2864369 C170.180031,21.2864369 170.009506,21.2546056 169.845802,21.1909431 C169.682099,21.1272805 169.532037,21.0272394 169.395617,20.8908196 C169.259198,20.7543999 169.159156,20.6043381 169.095494,20.4406344 C169.031831,20.2769307 169,20.106406 169,19.9290604 C169,19.7517147 169.031831,19.5812346 169.095494,19.4175532 C169.159156,19.2537826 169.259198,19.1037877 169.395617,18.967368 L172.382407,15.9805778 C172.064095,15.4803721 171.841276,14.9437209 171.713951,14.3707802 C171.586626,13.7977949 171.552521,13.224832 171.611636,12.6519359 C171.670751,12.0789729 171.82536,11.5219256 172.075463,10.9807939 C172.325566,10.4396622 172.668889,9.95082476 173.105432,9.51428155 C173.614733,9.01407579 174.189969,8.63664781 174.831142,8.3819976 C175.472315,8.1273251 176.124856,8 176.788788,8 C177.45263,8 178.105238,8.1273251 178.746344,8.38197531 C179.387584,8.63658093 179.962798,9.01400892 180.472099,9.51421468 Z" id="Shape" fill="#FFFFFF" fill-rule="nonzero" transform="translate(175.500000, 14.643218) scale(-1, 1) translate(-175.500000, -14.643218) "></path>
                <path d="M55,11.999615 C55,10.8952581 55.8984375,10 56.9974983,10 L133.002502,10 C134.10569,10 135,10.8874333 135,11.999615 L135,18.000385 C135,19.1047419 134.101562,20 133.002502,20 L56.9974983,20 C55.8943104,20 55,19.1125667 55,18.000385 L55,11.999615 Z" id="Rectangle" fill="#FFFFFF"></path>
            </g>
        </g>
        <g id="Group-9" transform="translate(29.000000, 32.000000)">
            <g id="Group-2">
                <g id="Bg" fill="#FFFFFF" stroke="#A9BBC9">
                    <rect id="Rectangle" x="0" y="0" width="190" height="350" rx="6"></rect>
                </g>
                <g id="Button" transform="translate(60.000000, 282.000000)" fill="#FFF3A2" stroke="#F34A00">
                    <path d="M0,4.00281647 C0,1.79212198 1.80069104,0 4.00218213,0 L65.9978179,0 C68.208162,0 70,1.79793835 70,4.00281647 L70,20.9971835 C70,23.207878 68.199309,25 65.9978179,25 L4.00218213,25 C1.79183797,25 0,23.2020617 0,20.9971835 L0,4.00281647 Z"></path>
                </g>
                <g id="Shape" transform="translate(25.000000, 130.000000)" stroke="#A9BBC9">
                    <g>
                        <path d="M0,36.999615 C0,35.8952581 0.894012451,35 2.0059814,35 L137.994019,35 C139.101892,35 140,35.8874333 140,36.999615 L140,43.000385 C140,44.1047419 139.105988,45 137.994019,45 L2.0059814,45 C0.898108463,45 0,44.1125667 0,43.000385 L0,36.999615 Z" id="Rectangle-" fill="#FFFFFF"></path>
                        <path d="M0,21.999615 C0,20.8952581 0.894012451,20 2.0059814,20 L137.994019,20 C139.101892,20 140,20.8874333 140,21.999615 L140,28.000385 C140,29.1047419 139.105988,30 137.994019,30 L2.0059814,30 C0.898108463,30 0,29.1125667 0,28.000385 L0,21.999615 Z" id="Rectangle-" fill="#FFFFFF"></path>
                        <path d="M30,1.99961498 C30,0.895258123 30.8984375,0 31.9974983,0 L108.002502,0 C109.10569,0 110,0.88743329 110,1.99961498 L110,8.00038502 C110,9.10474188 109.101562,10 108.002502,10 L31.9974983,10 C30.8943104,10 30,9.11256671 30,8.00038502 L30,1.99961498 Z" id="Rectangle" fill="#FAFAFA"></path>
                    </g>
                </g>
                <text id="Start-/-Introduction" font-family="Roboto-Light, Roboto" font-size="16" font-weight="300" line-spacing="20" letter-spacing="-0.400000006" fill="#738694">
                    <tspan x="32.4960938" y="375">Start / Introduction</tspan>
                </text>
                <g id="Base-Elements-/-Status-Bar" fill="#FFFFFF" stroke="#A9BBC9">
                    <g id="Status-Bar">
                        <path d="M0,6.00065947 C0,2.68658675 2.68988062,0 5.99137027,0 L183.99987,0 L184.004218,0 C187.315597,0 190,2.67653633 190,6.00065947 L190,20 L0,20 L0,6.00065947 Z" id="Combined-Shape"></path>
                        <rect id="Shape" x="81" y="7" width="28" height="7" rx="3.5"></rect>
                        <rect id="Shape" x="165" y="7" width="18" height="7" rx="3.5"></rect>
                        <rect id="Shape" x="155" y="7" width="7" height="7" rx="3.5"></rect>
                        <rect id="Shape" x="7" y="7" width="7" height="7" rx="3.5"></rect>
                        <rect id="Shape" x="17" y="7" width="7" height="7" rx="3.5"></rect>
                        <rect id="Shape" x="27" y="7" width="7" height="7" rx="3.5"></rect>
                    </g>
                </g>
                <g id="Shape" transform="translate(77.000000, 60.000000)" fill="#FFFFFF" stroke="#A9BBC9">
                    <path d="M36,32 L36,4 C36,1.8 34.2,0 32,0 L4,0 C1.8,0 0,1.8 0,4 L0,32 C0,34.2 1.8,36 4,36 L32,36 C34.2,36 36,34.2 36,32 L36,32 Z M11,21 L16,27.02 L23,18 L32,30 L4,30 L11,21 L11,21 Z"></path>
                </g>
            </g>
        </g>
        <g id="Group-12" transform="translate(538.000000, 32.000000)">
            <g id="Group-5">
                <g id="Bg-Copy-3" fill="#FFFFFF" stroke="#A9BBC9">
                    <rect id="Rectangle" x="0" y="0" width="190" height="350" rx="6"></rect>
                </g>
                <g id="Shape-Copy-4" transform="translate(25.000000, 129.000000)" stroke="#A9BBC9">
                    <g id="Shape">
                        <path d="M0,36.999615 C0,35.8952581 0.894012451,35 2.0059814,35 L137.994019,35 C139.101892,35 140,35.8874333 140,36.999615 L140,43.000385 C140,44.1047419 139.105988,45 137.994019,45 L2.0059814,45 C0.898108463,45 0,44.1125667 0,43.000385 L0,36.999615 Z" id="Rectangle-" fill="#FFFFFF"></path>
                        <path d="M0,21.999615 C0,20.8952581 0.894012451,20 2.0059814,20 L137.994019,20 C139.101892,20 140,20.8874333 140,21.999615 L140,28.000385 C140,29.1047419 139.105988,30 137.994019,30 L2.0059814,30 C0.898108463,30 0,29.1125667 0,28.000385 L0,21.999615 Z" id="Rectangle-" fill="#FFFFFF"></path>
                        <path d="M30,1.99961498 C30,0.895258123 30.8984375,0 31.9974983,0 L108.002502,0 C109.10569,0 110,0.88743329 110,1.99961498 L110,8.00038502 C110,9.10474188 109.101562,10 108.002502,10 L31.9974983,10 C30.8943104,10 30,9.11256671 30,8.00038502 L30,1.99961498 Z" id="Rectangle" fill="#FAFAFA"></path>
                    </g>
                </g>
                <path d="M32,266.998101 C32,265.89458 32.8891112,265 34.0045996,265 L155.9954,265 C157.10251,265 158,265.886706 158,266.998101 L158,271.001899 C158,272.10542 157.110889,273 155.9954,273 L34.0045996,273 C32.8974898,273 32,272.113294 32,271.001899 L32,266.998101 Z" id="Rectangle--Copy-5" stroke="#A9BBC9" fill="#FFFFFF"></path>
                <path d="M12,230.003595 C12,228.89704 12.8931253,228 14.0093292,228 L175.990671,228 C177.100393,228 178,228.889763 178,230.003595 L178,250.996405 C178,252.10296 177.106875,253 175.990671,253 L14.0093292,253 C12.8996073,253 12,252.110237 12,250.996405 L12,230.003595 Z" id="Rectangle--Copy-6" stroke="#F34A00" fill="#FFF3A2"></path>
                <path d="M32,208.998101 C32,207.89458 32.8891112,207 34.0045996,207 L155.9954,207 C157.10251,207 158,207.886706 158,208.998101 L158,213.001899 C158,214.10542 157.110889,215 155.9954,215 L34.0045996,215 C32.8974898,215 32,214.113294 32,213.001899 L32,208.998101 Z" id="Rectangle--Copy-7" stroke="#A9BBC9" fill="#FFFFFF"></path>
                <text id="Budget-Settings" font-family="Roboto-Light, Roboto" font-size="16" font-weight="300" line-spacing="20" letter-spacing="-0.400000006" fill="#738694">
                    <tspan x="42.484375" y="375">Budget Settings</tspan>
                </text>
                <g id="Base-Elements-/-Status-Bar" fill="#FFFFFF" stroke="#A9BBC9">
                    <g id="Status-Bar">
                        <path d="M0,6.00065947 C0,2.68658675 2.68988062,0 5.99137027,0 L183.99987,0 L184.004218,0 C187.315597,0 190,2.67653633 190,6.00065947 L190,20 L0,20 L0,6.00065947 Z" id="Combined-Shape"></path>
                        <rect id="Shape" x="81" y="7" width="28" height="7" rx="3.5"></rect>
                        <rect id="Shape" x="165" y="7" width="18" height="7" rx="3.5"></rect>
                        <rect id="Shape" x="155" y="7" width="7" height="7" rx="3.5"></rect>
                        <rect id="Shape" x="7" y="7" width="7" height="7" rx="3.5"></rect>
                        <rect id="Shape" x="17" y="7" width="7" height="7" rx="3.5"></rect>
                        <rect id="Shape" x="27" y="7" width="7" height="7" rx="3.5"></rect>
                    </g>
                </g>
                <g id="Shape-Copy-2" transform="translate(77.000000, 60.000000)" fill="#FFFFFF" stroke="#A9BBC9">
                    <path d="M36,32 L36,4 C36,1.8 34.2,0 32,0 L4,0 C1.8,0 0,1.8 0,4 L0,32 C0,34.2 1.8,36 4,36 L32,36 C34.2,36 36,34.2 36,32 L36,32 Z M11,21 L16,27.02 L23,18 L32,30 L4,30 L11,21 L11,21 Z" id="Shape"></path>
                </g>
            </g>
        </g>
        <g id="Group-11" transform="translate(283.000000, 32.000000)">
            <g id="Group-4">
                <g id="Bg-Copy" fill="#FFFFFF" stroke="#A9BBC9">
                    <rect id="Rectangle" x="0" y="0" width="190" height="350" rx="6"></rect>
                </g>
                <g id="Shape-Copy" transform="translate(25.000000, 129.000000)" stroke="#A9BBC9">
                    <g id="Shape">
                        <path d="M0,36.999615 C0,35.8952581 0.894012451,35 2.0059814,35 L137.994019,35 C139.101892,35 140,35.8874333 140,36.999615 L140,43.000385 C140,44.1047419 139.105988,45 137.994019,45 L2.0059814,45 C0.898108463,45 0,44.1125667 0,43.000385 L0,36.999615 Z" id="Rectangle-" fill="#FFFFFF"></path>
                        <path d="M0,21.999615 C0,20.8952581 0.894012451,20 2.0059814,20 L137.994019,20 C139.101892,20 140,20.8874333 140,21.999615 L140,28.000385 C140,29.1047419 139.105988,30 137.994019,30 L2.0059814,30 C0.898108463,30 0,29.1125667 0,28.000385 L0,21.999615 Z" id="Rectangle-" fill="#FFFFFF"></path>
                        <path d="M30,1.99961498 C30,0.895258123 30.8984375,0 31.9974983,0 L108.002502,0 C109.10569,0 110,0.88743329 110,1.99961498 L110,8.00038502 C110,9.10474188 109.101562,10 108.002502,10 L31.9974983,10 C30.8943104,10 30,9.11256671 30,8.00038502 L30,1.99961498 Z" id="Rectangle" fill="#FAFAFA"></path>
                    </g>
                </g>
                <text id="Budget-Settings" font-family="Roboto-Light, Roboto" font-size="16" font-weight="300" line-spacing="20" letter-spacing="-0.400000006" fill="#738694">
                    <tspan x="42.484375" y="375">Budget Settings</tspan>
                </text>
                <g id="Base-Elements-/-Status-Bar" fill="#FFFFFF" stroke="#A9BBC9">
                    <g id="Status-Bar">
                        <path d="M0,6.00065947 C0,2.68658675 2.68988062,0 5.99137027,0 L183.99987,0 L184.004218,0 C187.315597,0 190,2.67653633 190,6.00065947 L190,20 L0,20 L0,6.00065947 Z" id="Combined-Shape"></path>
                        <rect id="Shape" x="81" y="7" width="28" height="7" rx="3.5"></rect>
                        <rect id="Shape" x="165" y="7" width="18" height="7" rx="3.5"></rect>
                        <rect id="Shape" x="155" y="7" width="7" height="7" rx="3.5"></rect>
                        <rect id="Shape" x="7" y="7" width="7" height="7" rx="3.5"></rect>
                        <rect id="Shape" x="17" y="7" width="7" height="7" rx="3.5"></rect>
                        <rect id="Shape" x="27" y="7" width="7" height="7" rx="3.5"></rect>
                    </g>
                </g>
                <g id="Shape-Copy-3" transform="translate(77.000000, 60.000000)" fill="#FFFFFF" stroke="#A9BBC9">
                    <path d="M36,32 L36,4 C36,1.8 34.2,0 32,0 L4,0 C1.8,0 0,1.8 0,4 L0,32 C0,34.2 1.8,36 4,36 L32,36 C34.2,36 36,34.2 36,32 L36,32 Z M11,21 L16,27.02 L23,18 L32,30 L4,30 L11,21 L11,21 Z" id="Shape"></path>
                </g>
                <g id="Group" transform="translate(10.000000, 207.000000)" fill="#FFF3A2" stroke="#F4530C">
                    <circle id="Oval" cx="10" cy="10" r="10"></circle>
                    <circle id="Oval-Copy-3" cx="85" cy="10" r="10"></circle>
                    <circle id="Oval-Copy" cx="60" cy="10" r="10"></circle>
                    <circle id="Oval-Copy-4" cx="135" cy="10" r="10"></circle>
                    <circle id="Oval-Copy-6" cx="160" cy="10" r="10"></circle>
                    <circle id="Oval-Copy-2" cx="35" cy="10" r="10"></circle>
                    <circle id="Oval-Copy-5" cx="110" cy="10" r="10"></circle>
                </g>
            </g>
        </g>
        <g id="Group-15" transform="translate(29.000000, 468.000000)">
            <g id="Group-7">
                <g id="Shape-Copy-7" transform="translate(10.000000, 35.000000)" stroke="#A9BBC9">
                    <path d="M154,1.99961498 C154,0.895258123 154.894514,0 155.99406,0 L168.00594,0 C169.107229,0 170,0.88743329 170,1.99961498 L170,8.00038502 C170,9.10474188 169.105486,10 168.00594,10 L155.99406,10 C154.892771,10 154,9.11256671 154,8.00038502 L154,1.99961498 Z" id="Rectangle" fill="#FAFAFA"></path>
                    <path d="M154,16.999615 C154,15.8952581 154.894514,15 155.99406,15 L168.00594,15 C169.107229,15 170,15.8874333 170,16.999615 L170,23.000385 C170,24.1047419 169.105486,25 168.00594,25 L155.99406,25 C154.892771,25 154,24.1125667 154,23.000385 L154,16.999615 Z" id="Rectangle" fill="#FFFFFF"></path>
                    <path d="M0,1.99961498 C0,0.895258123 0.891374564,0 2.00032778,0 L74.9996722,0 C76.1044227,0 77,0.88743329 77,1.99961498 L77,8.00038502 C77,9.10474188 76.1086254,10 74.9996722,10 L2.00032778,10 C0.89557725,10 0,9.11256671 0,8.00038502 L0,1.99961498 Z" id="Rectangle" fill="#FAFAFA"></path>
                    <path d="M0,16.999615 C0,15.8952581 0.889064278,15 1.99091407,15 L48.0090859,15 C49.1086374,15 50,15.8874333 50,16.999615 L50,23.000385 C50,24.1047419 49.1109357,25 48.0090859,25 L1.99091407,25 C0.891362589,25 0,24.1125667 0,23.000385 L0,16.999615 Z" id="Rectangle" fill="#FFFFFF"></path>
                </g>
                <g id="Bg-Copy-4" transform="translate(0.000000, 1.000000)" fill="#FFFFFF" stroke="#A9BBC9">
                    <rect id="Rectangle" x="0" y="0" width="190" height="350" rx="6"></rect>
                </g>
                <g id="Shape-Copy-8" transform="translate(100.000000, 112.500000) scale(1, -1) translate(-100.000000, -112.500000) translate(30.000000, 90.000000)" stroke="#A9BBC9">
                    <g id="Shape">
                        <path d="M0,36.999615 C0,35.8952581 0.894012451,35 2.0059814,35 L137.994019,35 C139.101892,35 140,35.8874333 140,36.999615 L140,43.000385 C140,44.1047419 139.105988,45 137.994019,45 L2.0059814,45 C0.898108463,45 0,44.1125667 0,43.000385 L0,36.999615 Z" id="Rectangle-" fill="#FFFFFF"></path>
                        <path d="M0,21.999615 C0,20.8952581 0.894012451,20 2.0059814,20 L137.994019,20 C139.101892,20 140,20.8874333 140,21.999615 L140,28.000385 C140,29.1047419 139.105988,30 137.994019,30 L2.0059814,30 C0.898108463,30 0,29.1125667 0,28.000385 L0,21.999615 Z" id="Rectangle-" fill="#FFFFFF"></path>
                        <path d="M30,1.99961498 C30,0.895258123 30.8984375,0 31.9974983,0 L108.002502,0 C109.10569,0 110,0.88743329 110,1.99961498 L110,8.00038502 C110,9.10474188 109.101562,10 108.002502,10 L31.9974983,10 C30.8943104,10 30,9.11256671 30,8.00038502 L30,1.99961498 Z" id="Rectangle" fill="#FAFAFA"></path>
                    </g>
                </g>
                <text id="Daily-Spendings" font-family="Roboto-Light, Roboto" font-size="16" font-weight="300" line-spacing="20" letter-spacing="-0.400000006" fill="#738694">
                    <tspan x="42.3242188" y="375">Daily Spendings</tspan>
                </text>
                <g id="Base-Elements-/-Status-Bar" transform="translate(0.000000, -0.000000)" fill="#FFFFFF" stroke="#A9BBC9">
                    <g id="Status-Bar">
                        <path d="M0,6.00065947 C0,2.68658675 2.68988062,0 5.99137027,0 L183.99987,0 L184.004218,0 C187.315597,0 190,2.67653633 190,6.00065947 L190,20 L0,20 L0,6.00065947 Z" id="Combined-Shape"></path>
                        <rect id="Shape" x="81" y="7" width="28" height="7" rx="3.5"></rect>
                        <rect id="Shape" x="165" y="7" width="18" height="7" rx="3.5"></rect>
                        <rect id="Shape" x="155" y="7" width="7" height="7" rx="3.5"></rect>
                        <rect id="Shape" x="7" y="7" width="7" height="7" rx="3.5"></rect>
                        <rect id="Shape" x="17" y="7" width="7" height="7" rx="3.5"></rect>
                        <rect id="Shape" x="27" y="7" width="7" height="7" rx="3.5"></rect>
                    </g>
                </g>
                <g id="Page-1" transform="translate(55.000000, 171.000000)" stroke-width="20">
                    <path d="M77.3061496,13.297795 C94.9901397,31.025995 94.9901397,59.769395 77.3061496,77.497595 C59.6221596,95.225795 30.9504389,95.225795 13.2664489,77.497595 C-4.41754115,59.769395 -4.41754115,31.025995 13.2664489,13.297795 C30.9504389,-4.430405 59.6221596,-4.430405 77.3061496,13.297795 Z" id="Stroke-1" stroke="#FAFAFA"></path>
                    <path d="M45.2881496,-3.5e-05 C70.2954314,-3.5e-05 90.5699451,20.325165 90.5699451,45.398115 C90.5699451,70.467915 70.2954314,90.793115 45.2881496,90.793115 C20.2745835,90.793115 6.98254364e-05,70.467915 6.98254364e-05,45.398115" id="Stroke-3" stroke="#FFF3A2" stroke-linecap="round" stroke-linejoin="round"></path>
                </g>
                <path d="M90.090916,320.161207 C90.090916,320.161207 90.0897036,319.817455 90.1194064,319.612377 C90.1876015,319.138388 90.5643418,318.910565 90.8510644,318.909098 C91.049285,318.907997 91.2268954,319.034933 91.4072337,319.198187 L99.6955189,327.027444 C99.7134012,327.04542 99.7309803,327.063396 99.7473472,327.083574 C100.038313,327.431728 100.094385,327.79309 100.090748,328.033753 C100.081958,328.530121 99.8173609,328.846358 99.7643202,328.903956 C96.6649271,331.808422 91.6615257,336.60004 91.6615257,336.60004 C91.3623764,336.862715 91.1220264,337.089437 90.8459119,337.090905 C90.5255463,337.092005 90.2951983,336.875922 90.1869954,336.671579 C90.1269836,336.557851 90.09425,336.425779 90.09425,336.29114 L90.090916,320.161207 Z" id="Fill-1-Copy-3" stroke="#A9BBC9" fill="#F0F0F0" transform="translate(95.090909, 328.000000) rotate(90.000000) translate(-95.090909, -328.000000) "></path>
            </g>
        </g>
        <g id="Group-15-Copy" transform="translate(792.000000, 468.000000)">
            <g id="Group-7">
                <g id="Shape-Copy-7" transform="translate(10.000000, 35.000000)" stroke="#A9BBC9">
                    <path d="M154,1.99961498 C154,0.895258123 154.894514,0 155.99406,0 L168.00594,0 C169.107229,0 170,0.88743329 170,1.99961498 L170,8.00038502 C170,9.10474188 169.105486,10 168.00594,10 L155.99406,10 C154.892771,10 154,9.11256671 154,8.00038502 L154,1.99961498 Z" id="Rectangle" fill="#FAFAFA"></path>
                    <path d="M154,16.999615 C154,15.8952581 154.894514,15 155.99406,15 L168.00594,15 C169.107229,15 170,15.8874333 170,16.999615 L170,23.000385 C170,24.1047419 169.105486,25 168.00594,25 L155.99406,25 C154.892771,25 154,24.1125667 154,23.000385 L154,16.999615 Z" id="Rectangle" fill="#FFFFFF"></path>
                    <path d="M0,1.99961498 C0,0.895258123 0.891374564,0 2.00032778,0 L74.9996722,0 C76.1044227,0 77,0.88743329 77,1.99961498 L77,8.00038502 C77,9.10474188 76.1086254,10 74.9996722,10 L2.00032778,10 C0.89557725,10 0,9.11256671 0,8.00038502 L0,1.99961498 Z" id="Rectangle" fill="#FAFAFA"></path>
                    <path d="M0,16.999615 C0,15.8952581 0.889064278,15 1.99091407,15 L48.0090859,15 C49.1086374,15 50,15.8874333 50,16.999615 L50,23.000385 C50,24.1047419 49.1109357,25 48.0090859,25 L1.99091407,25 C0.891362589,25 0,24.1125667 0,23.000385 L0,16.999615 Z" id="Rectangle" fill="#FFFFFF"></path>
                </g>
                <g id="Bg-Copy-4" transform="translate(0.000000, 1.000000)" fill="#FFFFFF" stroke="#A9BBC9">
                    <rect id="Rectangle" x="0" y="0" width="190" height="350" rx="6"></rect>
                </g>
                <g id="Shape-Copy-8" transform="translate(100.000000, 112.500000) scale(1, -1) translate(-100.000000, -112.500000) translate(30.000000, 90.000000)" stroke="#A9BBC9">
                    <g id="Shape">
                        <path d="M0,36.999615 C0,35.8952581 0.894012451,35 2.0059814,35 L137.994019,35 C139.101892,35 140,35.8874333 140,36.999615 L140,43.000385 C140,44.1047419 139.105988,45 137.994019,45 L2.0059814,45 C0.898108463,45 0,44.1125667 0,43.000385 L0,36.999615 Z" id="Rectangle-" fill="#FFFFFF"></path>
                        <path d="M0,21.999615 C0,20.8952581 0.894012451,20 2.0059814,20 L137.994019,20 C139.101892,20 140,20.8874333 140,21.999615 L140,28.000385 C140,29.1047419 139.105988,30 137.994019,30 L2.0059814,30 C0.898108463,30 0,29.1125667 0,28.000385 L0,21.999615 Z" id="Rectangle-" fill="#FFFFFF"></path>
                        <path d="M30,1.99961498 C30,0.895258123 30.8984375,0 31.9974983,0 L108.002502,0 C109.10569,0 110,0.88743329 110,1.99961498 L110,8.00038502 C110,9.10474188 109.101562,10 108.002502,10 L31.9974983,10 C30.8943104,10 30,9.11256671 30,8.00038502 L30,1.99961498 Z" id="Rectangle" fill="#FAFAFA"></path>
                    </g>
                </g>
                <text id="Over-Spendings" font-family="Roboto-Light, Roboto" font-size="16" font-weight="300" line-spacing="20" letter-spacing="-0.400000006" fill="#738694">
                    <tspan x="42.9992188" y="375">Over Spendings</tspan>
                </text>
                <g id="Base-Elements-/-Status-Bar" transform="translate(0.000000, -0.000000)" fill="#FFFFFF" stroke="#A9BBC9">
                    <g id="Status-Bar">
                        <path d="M0,6.00065947 C0,2.68658675 2.68988062,0 5.99137027,0 L183.99987,0 L184.004218,0 C187.315597,0 190,2.67653633 190,6.00065947 L190,20 L0,20 L0,6.00065947 Z" id="Combined-Shape"></path>
                        <rect id="Shape" x="81" y="7" width="28" height="7" rx="3.5"></rect>
                        <rect id="Shape" x="165" y="7" width="18" height="7" rx="3.5"></rect>
                        <rect id="Shape" x="155" y="7" width="7" height="7" rx="3.5"></rect>
                        <rect id="Shape" x="7" y="7" width="7" height="7" rx="3.5"></rect>
                        <rect id="Shape" x="17" y="7" width="7" height="7" rx="3.5"></rect>
                        <rect id="Shape" x="27" y="7" width="7" height="7" rx="3.5"></rect>
                    </g>
                </g>
                <g id="Page-1" transform="translate(55.000000, 171.000000)" stroke-width="20">
                    <path d="M77.3061496,13.297795 C94.9901397,31.025995 94.9901397,59.769395 77.3061496,77.497595 C59.6221596,95.225795 30.9504389,95.225795 13.2664489,77.497595 C-4.41754115,59.769395 -4.41754115,31.025995 13.2664489,13.297795 C30.9504389,-4.430405 59.6221596,-4.430405 77.3061496,13.297795 Z" id="Stroke-1" stroke="#F8E71C"></path>
                    <path d="M45.2881496,-3.5e-05 C70.2954314,-3.5e-05 90.5699451,20.325165 90.5699451,45.398115 C90.5699451,70.467915 70.2954314,90.793115 45.2881496,90.793115 C20.2745835,90.793115 6.98254364e-05,70.467915 6.98254364e-05,45.398115" id="Stroke-3" stroke="#FF9600" stroke-linecap="round" stroke-linejoin="round"></path>
                </g>
                <path d="M90.090916,320.161207 C90.090916,320.161207 90.0897036,319.817455 90.1194064,319.612377 C90.1876015,319.138388 90.5643418,318.910565 90.8510644,318.909098 C91.049285,318.907997 91.2268954,319.034933 91.4072337,319.198187 L99.6955189,327.027444 C99.7134012,327.04542 99.7309803,327.063396 99.7473472,327.083574 C100.038313,327.431728 100.094385,327.79309 100.090748,328.033753 C100.081958,328.530121 99.8173609,328.846358 99.7643202,328.903956 C96.6649271,331.808422 91.6615257,336.60004 91.6615257,336.60004 C91.3623764,336.862715 91.1220264,337.089437 90.8459119,337.090905 C90.5255463,337.092005 90.2951983,336.875922 90.1869954,336.671579 C90.1269836,336.557851 90.09425,336.425779 90.09425,336.29114 L90.090916,320.161207 Z" id="Fill-1-Copy-3" stroke="#A9BBC9" fill="#F0F0F0" transform="translate(95.090909, 328.000000) rotate(90.000000) translate(-95.090909, -328.000000) "></path>
            </g>
        </g>
        <g id="Group-16" transform="translate(284.000000, 468.000000)">
            <g id="Bg-Copy-6" transform="translate(0.000000, 1.000000)" fill="#FFFFFF" stroke="#A9BBC9">
                <rect id="Rectangle" x="0" y="0" width="190" height="350" rx="6"></rect>
            </g>
            <text id="Daily-Spendings-on-E" font-family="Roboto-Light, Roboto" font-size="16" font-weight="300" line-spacing="20" letter-spacing="-0.400000006" fill="#738694">
                <tspan x="35.1039063" y="375">Daily Spendings on </tspan>
                <tspan x="66.44375" y="395">Each App</tspan>
            </text>
            <g id="Base-Elements-/-Status-Bar" fill="#FFFFFF" stroke="#A9BBC9">
                <g id="Status-Bar">
                    <path d="M0,6.00065947 C0,2.68658675 2.68988062,0 5.99137027,0 L183.99987,0 L184.004218,0 C187.315597,0 190,2.67653633 190,6.00065947 L190,20 L0,20 L0,6.00065947 Z" id="Combined-Shape"></path>
                    <rect id="Shape" x="81" y="7" width="28" height="7" rx="3.5"></rect>
                    <rect id="Shape" x="165" y="7" width="18" height="7" rx="3.5"></rect>
                    <rect id="Shape" x="155" y="7" width="7" height="7" rx="3.5"></rect>
                    <rect id="Shape" x="7" y="7" width="7" height="7" rx="3.5"></rect>
                    <rect id="Shape" x="17" y="7" width="7" height="7" rx="3.5"></rect>
                    <rect id="Shape" x="27" y="7" width="7" height="7" rx="3.5"></rect>
                </g>
            </g>
            <path d="M66,63.992017 C66,62.8918564 66.8923205,62 67.9960403,62 L179.00396,62 C180.106342,62 181,62.9001762 181,63.992017 L181,71.007983 C181,72.1081436 180.10768,73 179.00396,73 L67.9960403,73 C66.8936577,73 66,72.0998238 66,71.007983 L66,63.992017 Z" id="Rectangle--Copy-8" stroke="#A9BBC9" fill="#F0F0F0"></path>
            <path d="M66,88.992017 C66,87.8918564 66.8923205,87 67.9960403,87 L179.00396,87 C180.106342,87 181,87.9001762 181,88.992017 L181,96.007983 C181,97.1081436 180.10768,98 179.00396,98 L67.9960403,98 C66.8936577,98 66,97.0998238 66,96.007983 L66,88.992017 Z" id="Rectangle--Copy-14" stroke="#A9BBC9" fill="#F0F0F0"></path>
            <path d="M77,114.992017 C77,113.891856 77.899086,113 79.0076774,113 L178.992323,113 C180.101132,113 181,113.900176 181,114.992017 L181,122.007983 C181,123.108144 180.100914,124 178.992323,124 L79.0076774,124 C77.8988678,124 77,123.099824 77,122.007983 L77,114.992017 Z" id="Rectangle--Copy-10" stroke="#A9BBC9" fill="#F0F0F0"></path>
            <path d="M77,139.992017 C77,138.891856 77.899086,138 79.0076774,138 L178.992323,138 C180.101132,138 181,138.900176 181,139.992017 L181,147.007983 C181,148.108144 180.100914,149 178.992323,149 L79.0076774,149 C77.8988678,149 77,148.099824 77,147.007983 L77,139.992017 Z" id="Rectangle--Copy-15" stroke="#A9BBC9" fill="#F0F0F0"></path>
            <path d="M90,165.992017 C90,164.891856 90.900659,164 92.00672,164 L178.99328,164 C180.101561,164 181,164.900176 181,165.992017 L181,173.007983 C181,174.108144 180.099341,175 178.99328,175 L92.00672,175 C90.8984391,175 90,174.099824 90,173.007983 L90,165.992017 Z" id="Rectangle--Copy-11" stroke="#A9BBC9" fill="#F0F0F0"></path>
            <path d="M90,190.992017 C90,189.891856 90.900659,189 92.00672,189 L178.99328,189 C180.101561,189 181,189.900176 181,190.992017 L181,198.007983 C181,199.108144 180.099341,200 178.99328,200 L92.00672,200 C90.8984391,200 90,199.099824 90,198.007983 L90,190.992017 Z" id="Rectangle--Copy-16" stroke="#A9BBC9" fill="#F0F0F0"></path>
            <path d="M101,215.992017 C101,214.891856 101.898438,214 102.997498,214 L179.002502,214 C180.10569,214 181,214.900176 181,215.992017 L181,223.007983 C181,224.108144 180.101562,225 179.002502,225 L102.997498,225 C101.89431,225 101,224.099824 101,223.007983 L101,215.992017 Z" id="Rectangle--Copy-12" stroke="#A9BBC9" fill="#F0F0F0"></path>
            <path d="M101,241.992017 C101,240.891856 101.898438,240 102.997498,240 L179.002502,240 C180.10569,240 181,240.900176 181,241.992017 L181,249.007983 C181,250.108144 180.101562,251 179.002502,251 L102.997498,251 C101.89431,251 101,250.099824 101,249.007983 L101,241.992017 Z" id="Rectangle--Copy-17" stroke="#A9BBC9" fill="#F0F0F0"></path>
            <path d="M120,266.992017 C120,265.891856 120.885829,265 121.994898,265 L179.005102,265 C180.106854,265 181,265.900176 181,266.992017 L181,274.007983 C181,275.108144 180.114171,276 179.005102,276 L121.994898,276 C120.893146,276 120,275.099824 120,274.007983 L120,266.992017 Z" id="Rectangle--Copy-13" stroke="#A9BBC9" fill="#F0F0F0"></path>
            <path d="M120,292.992017 C120,291.891856 120.885829,291 121.994898,291 L179.005102,291 C180.106854,291 181,291.900176 181,292.992017 L181,300.007983 C181,301.108144 180.114171,302 179.005102,302 L121.994898,302 C120.893146,302 120,301.099824 120,300.007983 L120,292.992017 Z" id="Rectangle--Copy-18" stroke="#A9BBC9" fill="#F0F0F0"></path>
            <path d="M131,317.992017 C131,316.891856 131.889064,316 132.990914,316 L179.009086,316 C180.108637,316 181,316.900176 181,317.992017 L181,325.007983 C181,326.108144 180.110936,327 179.009086,327 L132.990914,327 C131.891363,327 131,326.099824 131,325.007983 L131,317.992017 Z" id="Rectangle--Copy-9" stroke="#A9BBC9" fill="#F0F0F0"></path>
            <g id="Shape-Copy-9" transform="translate(14.000000, 49.000000)" fill="#FFFFFF" stroke="#A9BBC9">
                <path d="M36,32 L36,4 C36,1.8 34.2,0 32,0 L4,0 C1.8,0 0,1.8 0,4 L0,32 C0,34.2 1.8,36 4,36 L32,36 C34.2,36 36,34.2 36,32 L36,32 Z M11,21 L16,27.02 L23,18 L32,30 L4,30 L11,21 L11,21 Z" id="Shape"></path>
            </g>
            <g id="Shape-Copy-10" transform="translate(14.000000, 100.000000)" fill="#FFFFFF" stroke="#A9BBC9">
                <path d="M36,32 L36,4 C36,1.8 34.2,0 32,0 L4,0 C1.8,0 0,1.8 0,4 L0,32 C0,34.2 1.8,36 4,36 L32,36 C34.2,36 36,34.2 36,32 L36,32 Z M11,21 L16,27.02 L23,18 L32,30 L4,30 L11,21 L11,21 Z" id="Shape"></path>
            </g>
            <g id="Shape-Copy-11" transform="translate(14.000000, 151.000000)" fill="#FFFFFF" stroke="#A9BBC9">
                <path d="M36,32 L36,4 C36,1.8 34.2,0 32,0 L4,0 C1.8,0 0,1.8 0,4 L0,32 C0,34.2 1.8,36 4,36 L32,36 C34.2,36 36,34.2 36,32 L36,32 Z M11,21 L16,27.02 L23,18 L32,30 L4,30 L11,21 L11,21 Z" id="Shape"></path>
            </g>
            <g id="Shape-Copy-12" transform="translate(14.000000, 201.000000)" fill="#FFFFFF" stroke="#A9BBC9">
                <path d="M36,32 L36,4 C36,1.8 34.2,0 32,0 L4,0 C1.8,0 0,1.8 0,4 L0,32 C0,34.2 1.8,36 4,36 L32,36 C34.2,36 36,34.2 36,32 L36,32 Z M11,21 L16,27.02 L23,18 L32,30 L4,30 L11,21 L11,21 Z" id="Shape"></path>
            </g>
            <g id="Shape-Copy-13" transform="translate(14.000000, 303.000000)" fill="#FFFFFF" stroke="#A9BBC9">
                <path d="M36,32 L36,4 C36,1.8 34.2,0 32,0 L4,0 C1.8,0 0,1.8 0,4 L0,32 C0,34.2 1.8,36 4,36 L32,36 C34.2,36 36,34.2 36,32 L36,32 Z M11,21 L16,27.02 L23,18 L32,30 L4,30 L11,21 L11,21 Z" id="Shape"></path>
            </g>
            <g id="Shape-Copy-14" transform="translate(14.000000, 252.000000)" fill="#FFFFFF" stroke="#A9BBC9">
                <path d="M36,32 L36,4 C36,1.8 34.2,0 32,0 L4,0 C1.8,0 0,1.8 0,4 L0,32 C0,34.2 1.8,36 4,36 L32,36 C34.2,36 36,34.2 36,32 L36,32 Z M11,21 L16,27.02 L23,18 L32,30 L4,30 L11,21 L11,21 Z" id="Shape"></path>
            </g>
            <path d="M90.090916,27.1612067 C90.090916,27.1612067 90.0897036,26.8174546 90.1194064,26.6123773 C90.1876015,26.1383884 90.5643418,25.9105655 90.8510644,25.909098 C91.049285,25.9079974 91.2268954,26.0349326 91.4072337,26.1981873 L99.6955189,34.0274435 C99.7134012,34.0454199 99.7309803,34.0633963 99.7473472,34.0835738 C100.038313,34.4317283 100.094385,34.7930899 100.090748,35.033753 C100.081958,35.5301207 99.8173609,35.846358 99.7643202,35.9039557 C96.6649271,38.8084223 91.6615257,43.6000401 91.6615257,43.6000401 C91.3623764,43.8627152 91.1220264,44.0894374 90.8459119,44.0909049 C90.5255463,44.0920055 90.2951983,43.8759223 90.1869954,43.6715787 C90.1269836,43.5578507 90.09425,43.4257795 90.09425,43.2911402 L90.090916,27.1612067 Z" id="Fill-1-Copy-4" stroke="#A9BBC9" fill="#F0F0F0" transform="translate(95.090909, 35.000000) scale(1, -1) rotate(90.000000) translate(-95.090909, -35.000000) "></path>
        </g>
        <g id="Group-16-Copy" transform="translate(1047.000000, 468.000000)">
            <g id="Bg-Copy-6" transform="translate(0.000000, 1.000000)" fill="#FFFFFF" stroke="#A9BBC9">
                <rect id="Rectangle" x="0" y="0" width="190" height="350" rx="6"></rect>
            </g>
            <text id="Over-Spendings" font-family="Roboto-Light, Roboto" font-size="16" font-weight="300" line-spacing="20" letter-spacing="-0.400000006" fill="#738694">
                <tspan x="45.9992188" y="375">Over Spendings </tspan>
            </text>
            <g id="Base-Elements-/-Status-Bar" fill="#FFFFFF" stroke="#A9BBC9">
                <g id="Status-Bar">
                    <path d="M0,6.00065947 C0,2.68658675 2.68988062,0 5.99137027,0 L183.99987,0 L184.004218,0 C187.315597,0 190,2.67653633 190,6.00065947 L190,20 L0,20 L0,6.00065947 Z" id="Combined-Shape"></path>
                    <rect id="Shape" x="81" y="7" width="28" height="7" rx="3.5"></rect>
                    <rect id="Shape" x="165" y="7" width="18" height="7" rx="3.5"></rect>
                    <rect id="Shape" x="155" y="7" width="7" height="7" rx="3.5"></rect>
                    <rect id="Shape" x="7" y="7" width="7" height="7" rx="3.5"></rect>
                    <rect id="Shape" x="17" y="7" width="7" height="7" rx="3.5"></rect>
                    <rect id="Shape" x="27" y="7" width="7" height="7" rx="3.5"></rect>
                </g>
            </g>
            <path d="M66,63.992017 C66,62.8918564 66.8923205,62 67.9960403,62 L179.00396,62 C180.106342,62 181,62.9001762 181,63.992017 L181,71.007983 C181,72.1081436 180.10768,73 179.00396,73 L67.9960403,73 C66.8936577,73 66,72.0998238 66,71.007983 L66,63.992017 Z" id="Rectangle--Copy-8" stroke="#FE3824" fill="#FFF3A2"></path>
            <path d="M66,88.992017 C66,87.8918564 66.8923205,87 67.9960403,87 L179.00396,87 C180.106342,87 181,87.9001762 181,88.992017 L181,96.007983 C181,97.1081436 180.10768,98 179.00396,98 L67.9960403,98 C66.8936577,98 66,97.0998238 66,96.007983 L66,88.992017 Z" id="Rectangle--Copy-14" stroke="#FE3824" fill="#FFF3A2"></path>
            <path d="M77,114.992017 C77,113.891856 77.899086,113 79.0076774,113 L178.992323,113 C180.101132,113 181,113.900176 181,114.992017 L181,122.007983 C181,123.108144 180.100914,124 178.992323,124 L79.0076774,124 C77.8988678,124 77,123.099824 77,122.007983 L77,114.992017 Z" id="Rectangle--Copy-10" stroke="#FE3824" fill="#FFF3A2"></path>
            <path d="M77,139.992017 C77,138.891856 77.899086,138 79.0076774,138 L178.992323,138 C180.101132,138 181,138.900176 181,139.992017 L181,147.007983 C181,148.108144 180.100914,149 178.992323,149 L79.0076774,149 C77.8988678,149 77,148.099824 77,147.007983 L77,139.992017 Z" id="Rectangle--Copy-15" stroke="#FE3824" fill="#FFF3A2"></path>
            <path d="M90,165.992017 C90,164.891856 90.900659,164 92.00672,164 L178.99328,164 C180.101561,164 181,164.900176 181,165.992017 L181,173.007983 C181,174.108144 180.099341,175 178.99328,175 L92.00672,175 C90.8984391,175 90,174.099824 90,173.007983 L90,165.992017 Z" id="Rectangle--Copy-11" stroke="#A9BBC9" fill="#F0F0F0"></path>
            <path d="M90,190.992017 C90,189.891856 90.900659,189 92.00672,189 L178.99328,189 C180.101561,189 181,189.900176 181,190.992017 L181,198.007983 C181,199.108144 180.099341,200 178.99328,200 L92.00672,200 C90.8984391,200 90,199.099824 90,198.007983 L90,190.992017 Z" id="Rectangle--Copy-16" stroke="#A9BBC9" fill="#F0F0F0"></path>
            <path d="M101,215.992017 C101,214.891856 101.898438,214 102.997498,214 L179.002502,214 C180.10569,214 181,214.900176 181,215.992017 L181,223.007983 C181,224.108144 180.101562,225 179.002502,225 L102.997498,225 C101.89431,225 101,224.099824 101,223.007983 L101,215.992017 Z" id="Rectangle--Copy-12" stroke="#A9BBC9" fill="#F0F0F0"></path>
            <path d="M101,241.992017 C101,240.891856 101.898438,240 102.997498,240 L179.002502,240 C180.10569,240 181,240.900176 181,241.992017 L181,249.007983 C181,250.108144 180.101562,251 179.002502,251 L102.997498,251 C101.89431,251 101,250.099824 101,249.007983 L101,241.992017 Z" id="Rectangle--Copy-17" stroke="#A9BBC9" fill="#F0F0F0"></path>
            <path d="M120,266.992017 C120,265.891856 120.885829,265 121.994898,265 L179.005102,265 C180.106854,265 181,265.900176 181,266.992017 L181,274.007983 C181,275.108144 180.114171,276 179.005102,276 L121.994898,276 C120.893146,276 120,275.099824 120,274.007983 L120,266.992017 Z" id="Rectangle--Copy-13" stroke="#A9BBC9" fill="#F0F0F0"></path>
            <path d="M120,292.992017 C120,291.891856 120.885829,291 121.994898,291 L179.005102,291 C180.106854,291 181,291.900176 181,292.992017 L181,300.007983 C181,301.108144 180.114171,302 179.005102,302 L121.994898,302 C120.893146,302 120,301.099824 120,300.007983 L120,292.992017 Z" id="Rectangle--Copy-18" stroke="#A9BBC9" fill="#F0F0F0"></path>
            <path d="M131,317.992017 C131,316.891856 131.889064,316 132.990914,316 L179.009086,316 C180.108637,316 181,316.900176 181,317.992017 L181,325.007983 C181,326.108144 180.110936,327 179.009086,327 L132.990914,327 C131.891363,327 131,326.099824 131,325.007983 L131,317.992017 Z" id="Rectangle--Copy-9" stroke="#A9BBC9" fill="#F0F0F0"></path>
            <g id="Shape-Copy-9" transform="translate(14.000000, 49.000000)" fill="#FFFFFF" stroke="#A9BBC9">
                <path d="M36,32 L36,4 C36,1.8 34.2,0 32,0 L4,0 C1.8,0 0,1.8 0,4 L0,32 C0,34.2 1.8,36 4,36 L32,36 C34.2,36 36,34.2 36,32 L36,32 Z M11,21 L16,27.02 L23,18 L32,30 L4,30 L11,21 L11,21 Z" id="Shape"></path>
            </g>
            <g id="Shape-Copy-10" transform="translate(14.000000, 100.000000)" fill="#FFFFFF" stroke="#A9BBC9">
                <path d="M36,32 L36,4 C36,1.8 34.2,0 32,0 L4,0 C1.8,0 0,1.8 0,4 L0,32 C0,34.2 1.8,36 4,36 L32,36 C34.2,36 36,34.2 36,32 L36,32 Z M11,21 L16,27.02 L23,18 L32,30 L4,30 L11,21 L11,21 Z" id="Shape"></path>
            </g>
            <g id="Shape-Copy-11" transform="translate(14.000000, 151.000000)" fill="#FFFFFF" stroke="#A9BBC9">
                <path d="M36,32 L36,4 C36,1.8 34.2,0 32,0 L4,0 C1.8,0 0,1.8 0,4 L0,32 C0,34.2 1.8,36 4,36 L32,36 C34.2,36 36,34.2 36,32 L36,32 Z M11,21 L16,27.02 L23,18 L32,30 L4,30 L11,21 L11,21 Z" id="Shape"></path>
            </g>
            <g id="Shape-Copy-12" transform="translate(14.000000, 201.000000)" fill="#FFFFFF" stroke="#A9BBC9">
                <path d="M36,32 L36,4 C36,1.8 34.2,0 32,0 L4,0 C1.8,0 0,1.8 0,4 L0,32 C0,34.2 1.8,36 4,36 L32,36 C34.2,36 36,34.2 36,32 L36,32 Z M11,21 L16,27.02 L23,18 L32,30 L4,30 L11,21 L11,21 Z" id="Shape"></path>
            </g>
            <g id="Shape-Copy-13" transform="translate(14.000000, 303.000000)" fill="#FFFFFF" stroke="#A9BBC9">
                <path d="M36,32 L36,4 C36,1.8 34.2,0 32,0 L4,0 C1.8,0 0,1.8 0,4 L0,32 C0,34.2 1.8,36 4,36 L32,36 C34.2,36 36,34.2 36,32 L36,32 Z M11,21 L16,27.02 L23,18 L32,30 L4,30 L11,21 L11,21 Z" id="Shape"></path>
            </g>
            <g id="Shape-Copy-14" transform="translate(14.000000, 252.000000)" fill="#FFFFFF" stroke="#A9BBC9">
                <path d="M36,32 L36,4 C36,1.8 34.2,0 32,0 L4,0 C1.8,0 0,1.8 0,4 L0,32 C0,34.2 1.8,36 4,36 L32,36 C34.2,36 36,34.2 36,32 L36,32 Z M11,21 L16,27.02 L23,18 L32,30 L4,30 L11,21 L11,21 Z" id="Shape"></path>
            </g>
            <path d="M90.090916,27.1612067 C90.090916,27.1612067 90.0897036,26.8174546 90.1194064,26.6123773 C90.1876015,26.1383884 90.5643418,25.9105655 90.8510644,25.909098 C91.049285,25.9079974 91.2268954,26.0349326 91.4072337,26.1981873 L99.6955189,34.0274435 C99.7134012,34.0454199 99.7309803,34.0633963 99.7473472,34.0835738 C100.038313,34.4317283 100.094385,34.7930899 100.090748,35.033753 C100.081958,35.5301207 99.8173609,35.846358 99.7643202,35.9039557 C96.6649271,38.8084223 91.6615257,43.6000401 91.6615257,43.6000401 C91.3623764,43.8627152 91.1220264,44.0894374 90.8459119,44.0909049 C90.5255463,44.0920055 90.2951983,43.8759223 90.1869954,43.6715787 C90.1269836,43.5578507 90.09425,43.4257795 90.09425,43.2911402 L90.090916,27.1612067 Z" id="Fill-1-Copy-4" stroke="#A9BBC9" fill="#F0F0F0" transform="translate(95.090909, 35.000000) scale(1, -1) rotate(90.000000) translate(-95.090909, -35.000000) "></path>
        </g>
        <g id="Group-14" transform="translate(792.000000, 32.000000)">
            <g id="Group-6">
                <g id="Shape-Copy-5" transform="translate(10.000000, 117.000000)" stroke="#A9BBC9">
                    <path d="M154,1.99961498 C154,0.895258123 154.894514,0 155.99406,0 L168.00594,0 C169.107229,0 170,0.88743329 170,1.99961498 L170,8.00038502 C170,9.10474188 169.105486,10 168.00594,10 L155.99406,10 C154.892771,10 154,9.11256671 154,8.00038502 L154,1.99961498 Z" id="Rectangle" fill="#FAFAFA"></path>
                    <path d="M154,16.999615 C154,15.8952581 154.894514,15 155.99406,15 L168.00594,15 C169.107229,15 170,15.8874333 170,16.999615 L170,23.000385 C170,24.1047419 169.105486,25 168.00594,25 L155.99406,25 C154.892771,25 154,24.1125667 154,23.000385 L154,16.999615 Z" id="Rectangle" fill="#FFFFFF"></path>
                    <path d="M0,1.99961498 C0,0.895258123 0.891374564,0 2.00032778,0 L74.9996722,0 C76.1044227,0 77,0.88743329 77,1.99961498 L77,8.00038502 C77,9.10474188 76.1086254,10 74.9996722,10 L2.00032778,10 C0.89557725,10 0,9.11256671 0,8.00038502 L0,1.99961498 Z" id="Rectangle" fill="#FAFAFA"></path>
                    <path d="M0,16.999615 C0,15.8952581 0.889064278,15 1.99091407,15 L48.0090859,15 C49.1086374,15 50,15.8874333 50,16.999615 L50,23.000385 C50,24.1047419 49.1109357,25 48.0090859,25 L1.99091407,25 C0.891362589,25 0,24.1125667 0,23.000385 L0,16.999615 Z" id="Rectangle" fill="#FFFFFF"></path>
                </g>
                <g id="Shape-Copy-6" transform="translate(10.000000, 147.000000)" stroke="#A9BBC9">
                    <path d="M154,1.99961498 C154,0.895258123 154.894514,0 155.99406,0 L168.00594,0 C169.107229,0 170,0.88743329 170,1.99961498 L170,8.00038502 C170,9.10474188 169.105486,10 168.00594,10 L155.99406,10 C154.892771,10 154,9.11256671 154,8.00038502 L154,1.99961498 Z" id="Rectangle" fill="#FAFAFA"></path>
                    <path d="M154,16.999615 C154,15.8952581 154.894514,15 155.99406,15 L168.00594,15 C169.107229,15 170,15.8874333 170,16.999615 L170,23.000385 C170,24.1047419 169.105486,25 168.00594,25 L155.99406,25 C154.892771,25 154,24.1125667 154,23.000385 L154,16.999615 Z" id="Rectangle" fill="#FFFFFF"></path>
                    <path d="M0,1.99961498 C0,0.895258123 0.891374564,0 2.00032778,0 L74.9996722,0 C76.1044227,0 77,0.88743329 77,1.99961498 L77,8.00038502 C77,9.10474188 76.1086254,10 74.9996722,10 L2.00032778,10 C0.89557725,10 0,9.11256671 0,8.00038502 L0,1.99961498 Z" id="Rectangle" fill="#FAFAFA"></path>
                    <path d="M0,16.999615 C0,15.8952581 0.889064278,15 1.99091407,15 L48.0090859,15 C49.1086374,15 50,15.8874333 50,16.999615 L50,23.000385 C50,24.1047419 49.1109357,25 48.0090859,25 L1.99091407,25 C0.891362589,25 0,24.1125667 0,23.000385 L0,16.999615 Z" id="Rectangle" fill="#FFFFFF"></path>
                </g>
                <g id="Bg-Copy-5" fill="#FFFFFF" stroke="#A9BBC9">
                    <rect id="Rectangle" x="0" y="0" width="190" height="350" rx="6"></rect>
                </g>
                <text id="Confirm-Budgets" font-family="Roboto-Light, Roboto" font-size="16" font-weight="300" line-spacing="20" letter-spacing="-0.400000006" fill="#738694">
                    <tspan x="38.7726563" y="375">Confirm Budgets</tspan>
                </text>
                <g id="Base-Elements-/-Status-Bar" fill="#FFFFFF" stroke="#A9BBC9">
                    <g id="Status-Bar">
                        <path d="M0,6.00065947 C0,2.68658675 2.68988062,0 5.99137027,0 L183.99987,0 L184.004218,0 C187.315597,0 190,2.67653633 190,6.00065947 L190,20 L0,20 L0,6.00065947 Z" id="Combined-Shape"></path>
                        <rect id="Shape" x="81" y="7" width="28" height="7" rx="3.5"></rect>
                        <rect id="Shape" x="165" y="7" width="18" height="7" rx="3.5"></rect>
                        <rect id="Shape" x="155" y="7" width="7" height="7" rx="3.5"></rect>
                        <rect id="Shape" x="7" y="7" width="7" height="7" rx="3.5"></rect>
                        <rect id="Shape" x="17" y="7" width="7" height="7" rx="3.5"></rect>
                        <rect id="Shape" x="27" y="7" width="7" height="7" rx="3.5"></rect>
                    </g>
                </g>
                <path d="M15,107.992017 C15,106.891856 15.8923205,106 16.9960403,106 L128.00396,106 C129.106342,106 130,106.900176 130,107.992017 L130,115.007983 C130,116.108144 129.10768,117 128.00396,117 L16.9960403,117 C15.8936577,117 15,116.099824 15,115.007983 L15,107.992017 Z" id="Rectangle--Copy-21" stroke="#A9BBC9" fill="#F0F0F0"></path>
                <path d="M15,154.658684 C15,153.558523 15.8923205,152.666667 16.9960403,152.666667 L128.00396,152.666667 C129.106342,152.666667 130,153.566843 130,154.658684 L130,161.67465 C130,162.77481 129.10768,163.666667 128.00396,163.666667 L16.9960403,163.666667 C15.8936577,163.666667 15,162.76649 15,161.67465 L15,154.658684 Z" id="Rectangle--Copy-23" stroke="#A9BBC9" fill="#F0F0F0"></path>
                <path d="M15,131.32535 C15,130.22519 15.8923205,129.333333 16.9960403,129.333333 L128.00396,129.333333 C129.106342,129.333333 130,130.23351 130,131.32535 L130,138.341316 C130,139.441477 129.10768,140.333333 128.00396,140.333333 L16.9960403,140.333333 C15.8936577,140.333333 15,139.433157 15,138.341316 L15,131.32535 Z" id="Rectangle--Copy-22" stroke="#A9BBC9" fill="#F0F0F0"></path>
                <path d="M15,177.992017 C15,176.891856 15.8923205,176 16.9960403,176 L128.00396,176 C129.106342,176 130,176.900176 130,177.992017 L130,185.007983 C130,186.108144 129.10768,187 128.00396,187 L16.9960403,187 C15.8936577,187 15,186.099824 15,185.007983 L15,177.992017 Z" id="Rectangle--Copy-24" stroke="#A9BBC9" fill="#F0F0F0"></path>
                <circle id="Oval-Copy-7" stroke="#F4530C" fill="#FFF3A2" cx="20" cy="78" r="10"></circle>
                <circle id="Oval-Copy-8" stroke="#F4530C" fill="#FFF3A2" cx="95" cy="78" r="10"></circle>
                <circle id="Oval-Copy-9" stroke="#F4530C" fill="#FFF3A2" cx="70" cy="78" r="10"></circle>
                <circle id="Oval-Copy-10" stroke="#F4530C" fill="#FFF3A2" cx="145" cy="78" r="10"></circle>
                <circle id="Oval-Copy-11" stroke="#F4530C" fill="#FFF3A2" cx="170" cy="78" r="10"></circle>
                <circle id="Oval-Copy-12" stroke="#F4530C" fill="#FFF3A2" cx="45" cy="78" r="10"></circle>
                <circle id="Oval-Copy-13" stroke="#F4530C" fill="#FFF3A2" cx="120" cy="78" r="10"></circle>
                <g id="Group-20" transform="translate(11.000000, 201.000000)" stroke="#A9BBC9">
                    <circle id="Oval-Copy-14" fill="#F0F0F0" cx="163" cy="5" r="5"></circle>
                    <path d="M0.5,5.5 L157.5,5.5" id="Line-2" stroke-linecap="square"></path>
                </g>
            </g>
        </g>
        <g id="Group-19-Copy" transform="translate(1301.000000, 468.000000)">
            <g id="Group-17">
                <g id="Bg-Copy-2" fill="#FFFFFF" stroke="#A9BBC9">
                    <rect id="Rectangle" x="0" y="0" width="190" height="350" rx="6"></rect>
                </g>
                <text id="Over-Spending-Analys" font-family="Roboto-Light, Roboto" font-size="16" font-weight="300" line-spacing="20" letter-spacing="-0.400000006" fill="#738694">
                    <tspan x="16.5406251" y="375">Over Spending Analysis</tspan>
                </text>
                <g id="Base-Elements-/-Status-Bar" fill="#FFFFFF" stroke="#A9BBC9">
                    <g id="Status-Bar">
                        <path d="M0,6.00065947 C0,2.68658675 2.68988062,0 5.99137027,0 L183.99987,0 L184.004218,0 C187.315597,0 190,2.67653633 190,6.00065947 L190,20 L0,20 L0,6.00065947 Z" id="Combined-Shape"></path>
                        <rect id="Shape" x="81" y="7" width="28" height="7" rx="3.5"></rect>
                        <rect id="Shape" x="165" y="7" width="18" height="7" rx="3.5"></rect>
                        <rect id="Shape" x="155" y="7" width="7" height="7" rx="3.5"></rect>
                        <rect id="Shape" x="7" y="7" width="7" height="7" rx="3.5"></rect>
                        <rect id="Shape" x="17" y="7" width="7" height="7" rx="3.5"></rect>
                        <rect id="Shape" x="27" y="7" width="7" height="7" rx="3.5"></rect>
                    </g>
                </g>
                <path d="M17,228.992017 C17,227.891856 17.8998141,227 18.9940296,227 L175.00597,227 C176.107243,227 177,227.900176 177,228.992017 L177,236.007983 C177,237.108144 176.100186,238 175.00597,238 L18.9940296,238 C17.8927575,238 17,237.099824 17,236.007983 L17,228.992017 Z" id="Rectangle--Copy-32" stroke="#A9BBC9" fill="#F0F0F0"></path>
                <path d="M-53,113.992017 C-53,112.891856 -52.1001548,112 -50.9929812,112 L94.9929812,112 C96.1014271,112 97,112.900176 97,113.992017 L97,121.007983 C97,122.108144 96.1001548,123 94.9929812,123 L-50.9929812,123 C-52.1014271,123 -53,122.099824 -53,121.007983 L-53,113.992017 Z" id="Rectangle--Copy-20" stroke="#FE3824" fill="#FFF3A2" transform="translate(22.000000, 117.500000) scale(-1, 1) rotate(90.000000) translate(-22.000000, -117.500000) "></path>
                <path d="M25.6666667,142.992017 C25.6666667,141.891856 26.5673256,141 27.6733866,141 L114.659947,141 C115.768228,141 116.666667,141.900176 116.666667,142.992017 L116.666667,150.007983 C116.666667,151.108144 115.766008,152 114.659947,152 L27.6733866,152 C26.5651058,152 25.6666667,151.099824 25.6666667,150.007983 L25.6666667,142.992017 Z" id="Rectangle--Copy-26" stroke="#A9BBC9" fill="#F0F0F0" transform="translate(71.166667, 146.500000) scale(-1, 1) rotate(90.000000) translate(-71.166667, -146.500000) "></path>
                <path d="M99.4166667,142.992017 C99.4166667,141.891856 100.317326,141 101.423387,141 L188.409947,141 C189.518228,141 190.416667,141.900176 190.416667,142.992017 L190.416667,150.007983 C190.416667,151.108144 189.516008,152 188.409947,152 L101.423387,152 C100.315106,152 99.4166667,151.099824 99.4166667,150.007983 L99.4166667,142.992017 Z" id="Rectangle--Copy-30" stroke="#A9BBC9" fill="#F0F0F0" transform="translate(144.916667, 146.500000) scale(-1, 1) rotate(90.000000) translate(-144.916667, -146.500000) "></path>
                <path d="M60.25,152.992017 C60.25,151.891856 61.1477023,151 62.2417458,151 L129.258254,151 C130.358265,151 131.25,151.900176 131.25,152.992017 L131.25,160.007983 C131.25,161.108144 130.352298,162 129.258254,162 L62.2417458,162 C61.141735,162 60.25,161.099824 60.25,160.007983 L60.25,152.992017 Z" id="Rectangle--Copy-27" stroke="#A9BBC9" fill="#F0F0F0" transform="translate(95.750000, 156.500000) scale(-1, 1) rotate(90.000000) translate(-95.750000, -156.500000) "></path>
                <path d="M134,152.992017 C134,151.891856 134.897702,151 135.991746,151 L203.008254,151 C204.108265,151 205,151.900176 205,152.992017 L205,160.007983 C205,161.108144 204.102298,162 203.008254,162 L135.991746,162 C134.891735,162 134,161.099824 134,160.007983 L134,152.992017 Z" id="Rectangle--Copy-31" stroke="#A9BBC9" fill="#F0F0F0" transform="translate(169.500000, 156.500000) scale(-1, 1) rotate(90.000000) translate(-169.500000, -156.500000) "></path>
                <path d="M60.3333333,128.992017 C60.3333333,127.891856 61.2302497,127 62.3408504,127 L178.325816,127 C179.434537,127 180.333333,127.900176 180.333333,128.992017 L180.333333,136.007983 C180.333333,137.108144 179.436417,138 178.325816,138 L62.3408504,138 C61.2321293,138 60.3333333,137.099824 60.3333333,136.007983 L60.3333333,128.992017 Z" id="Rectangle--Copy-29" stroke="#FE3824" fill="#FFF3A2" transform="translate(120.333333, 132.500000) scale(-1, 1) rotate(90.000000) translate(-120.333333, -132.500000) "></path>
                <path d="M21.5833333,163.992017 C21.5833333,162.891856 22.4723976,162 23.5742474,162 L69.5924193,162 C70.6919707,162 71.5833333,162.900176 71.5833333,163.992017 L71.5833333,171.007983 C71.5833333,172.108144 70.6942691,173 69.5924193,173 L23.5742474,173 C22.4746959,173 21.5833333,172.099824 21.5833333,171.007983 L21.5833333,163.992017 Z" id="Rectangle--Copy-28" stroke="#A9BBC9" fill="#F0F0F0" transform="translate(46.583333, 167.500000) scale(-1, 1) rotate(90.000000) translate(-46.583333, -167.500000) "></path>
                <circle id="Oval-Copy-17" stroke="#F4530C" fill="#FFF3A2" cx="71" cy="232" r="15"></circle>
            </g>
            <g id="Shape-Copy-15" transform="translate(17.000000, 262.000000)" stroke="#A9BBC9">
                <path d="M144.941176,1.99961498 C144.941176,0.895258123 145.838077,0 146.940872,0 L158.000305,0 C159.104706,0 160,0.88743329 160,1.99961498 L160,8.00038502 C160,9.10474188 159.103099,10 158.000305,10 L146.940872,10 C145.836471,10 144.941176,9.11256671 144.941176,8.00038502 L144.941176,1.99961498 Z" id="Rectangle" fill="#FAFAFA"></path>
                <path d="M144.941176,16.999615 C144.941176,15.8952581 145.838077,15 146.940872,15 L158.000305,15 C159.104706,15 160,15.8874333 160,16.999615 L160,23.000385 C160,24.1047419 159.103099,25 158.000305,25 L146.940872,25 C145.836471,25 144.941176,24.1125667 144.941176,23.000385 L144.941176,16.999615 Z" id="Rectangle" fill="#FFFFFF"></path>
                <path d="M0,1.99961498 C0,0.895258123 0.89015024,0 1.9949157,0 L70.4756725,0 C71.5774341,0 72.4705882,0.88743329 72.4705882,1.99961498 L72.4705882,8.00038502 C72.4705882,9.10474188 71.580438,10 70.4756725,10 L1.9949157,10 C0.893154184,10 0,9.11256671 0,8.00038502 L0,1.99961498 Z" id="Rectangle" fill="#FAFAFA"></path>
                <path d="M0,16.999615 C0,15.8952581 0.898041445,15 1.99200134,15 L45.0668222,15 C46.1669742,15 47.0588235,15.8874333 47.0588235,16.999615 L47.0588235,23.000385 C47.0588235,24.1047419 46.1607821,25 45.0668222,25 L1.99200134,25 C0.891849379,25 0,24.1125667 0,23.000385 L0,16.999615 Z" id="Rectangle" fill="#FFFFFF"></path>
            </g>
            <g id="Shape-Copy-16" transform="translate(17.000000, 293.000000)" stroke="#A9BBC9">
                <path d="M144.941176,1.99961498 C144.941176,0.895258123 145.838077,0 146.940872,0 L158.000305,0 C159.104706,0 160,0.88743329 160,1.99961498 L160,8.00038502 C160,9.10474188 159.103099,10 158.000305,10 L146.940872,10 C145.836471,10 144.941176,9.11256671 144.941176,8.00038502 L144.941176,1.99961498 Z" id="Rectangle" fill="#FAFAFA"></path>
                <path d="M144.941176,16.999615 C144.941176,15.8952581 145.838077,15 146.940872,15 L158.000305,15 C159.104706,15 160,15.8874333 160,16.999615 L160,23.000385 C160,24.1047419 159.103099,25 158.000305,25 L146.940872,25 C145.836471,25 144.941176,24.1125667 144.941176,23.000385 L144.941176,16.999615 Z" id="Rectangle" fill="#FFFFFF"></path>
                <path d="M0,1.99961498 C0,0.895258123 0.89015024,0 1.9949157,0 L70.4756725,0 C71.5774341,0 72.4705882,0.88743329 72.4705882,1.99961498 L72.4705882,8.00038502 C72.4705882,9.10474188 71.580438,10 70.4756725,10 L1.9949157,10 C0.893154184,10 0,9.11256671 0,8.00038502 L0,1.99961498 Z" id="Rectangle" fill="#FAFAFA"></path>
                <path d="M0,16.999615 C0,15.8952581 0.898041445,15 1.99200134,15 L45.0668222,15 C46.1669742,15 47.0588235,15.8874333 47.0588235,16.999615 L47.0588235,23.000385 C47.0588235,24.1047419 46.1607821,25 45.0668222,25 L1.99200134,25 C0.891849379,25 0,24.1125667 0,23.000385 L0,16.999615 Z" id="Rectangle" fill="#FFFFFF"></path>
            </g>
        </g>
        <g id="Group-20-Copy" transform="translate(1317.000000, 538.000000)" stroke="#FE3824">
            <circle id="Oval-Copy-14" fill="#FFF3A2" cx="155" cy="5" r="5"></circle>
            <path d="M0.5,5.5 L149.5,5.5" id="Line-2" stroke-linecap="square"></path>
        </g>
        <g id="Labels-/-Home" transform="translate(199.000000, 448.000000)">
            <g id="Home">
                <g id="Oval-3">
                    <use fill="#FFFFFF" fill-rule="evenodd" xlink:href="#path-3"></use>
                    <circle stroke="#A9BBC9" stroke-width="1" cx="20" cy="20" r="20.5"></circle>
                </g>
                <path d="M20,10 L11,17.875 L12.125,19 L14.375,19 L14.375,26.875 C14.375,27.496 14.879,28 15.5,28 L17.75,28 L17.75,21.25 C17.75,20.629 18.254,20.125 18.875,20.125 L21.125,20.125 C21.746,20.125 22.25,20.629 22.25,21.25 L22.25,28 L24.5,28 C25.121,28 25.625,27.496 25.625,26.875 L25.625,19 L27.875,19 L29,17.875 L20,10 Z" id="Page-1" fill="#F34A00"></path>
            </g>
        </g>
        <g id="Markups-/-Comment-Right" transform="translate(1271.000000, 32.000000)">
            <g id="Comment-Right">
                <path d="M7,24.0710678 L-5.77315973e-14,17.0710678 L7,10.0710678 L7,6.00013049 C7,2.68634992 9.69310701,0 13.0033732,0 L213.996627,0 C217.312198,0 220,2.68589973 220,6.00013049 L220,183.99987 C220,187.31365 217.306893,190 213.996627,190 L13.0033732,190 C9.68780173,190 7,187.3141 7,183.99987 L7,24.0710678 Z" id="Combined-Shape" stroke="#A9BBC9" fill="#FFFFFF"></path>
                <text id="A-common-dream,-born" font-family="Roboto-Light, Roboto" font-size="14" font-weight="300" line-spacing="18" letter-spacing="-0.200000003" fill="#738694">
                    <tspan x="22" y="24">Users need to set up their daily </tspan>
                    <tspan x="22" y="42">screen time spending budget </tspan>
                    <tspan x="22" y="60">first. They can set up the </tspan>
                    <tspan x="22" y="78">budget for workdays or </tspan>
                    <tspan x="22" y="96">weekends. Once the budget </tspan>
                    <tspan x="22" y="114">setting is done, the app will </tspan>
                    <tspan x="22" y="132">regularly notify the users if they </tspan>
                    <tspan x="22" y="150">are running low on screen time </tspan>
                    <tspan x="22" y="168">budget.</tspan>
                </text>
            </g>
        </g>
        <g id="Markups-/-Comment-Right" transform="translate(484.000000, 468.000000)">
            <g id="Comment-Right">
                <path d="M7,24.0710678 L-5.68434189e-14,17.0710678 L7,10.0710678 L7,5.9921951 C7,2.68279713 9.69105036,0 12.9963182,0 L237.003682,0 C240.315357,0 243,2.69180017 243,5.9921951 L243,104.007805 C243,107.317203 240.30895,110 237.003682,110 L12.9963182,110 C9.68464312,110 7,107.3082 7,104.007805 L7,24.0710678 Z" id="Combined-Shape" stroke="#A9BBC9" fill="#FFFFFF"></path>
                <text id="A-common-dream,-born" font-family="Roboto-Light, Roboto" font-size="14" font-weight="300" line-spacing="18" letter-spacing="-0.200000003" fill="#738694">
                    <tspan x="22" y="24">Users can review their everyday </tspan>
                    <tspan x="22" y="42">spending history, including details </tspan>
                    <tspan x="22" y="60">and breakdowns about how much </tspan>
                    <tspan x="22" y="78">time they have spent on each app. </tspan>
                </text>
            </g>
        </g>
        <g id="Markups-/-Comment-Left" transform="translate(539.000000, 685.000000)">
            <g id="Comment-Left">
                <path d="M236,10.9289322 L242.142136,17.0710678 L236,23.2132034 L236,128.003858 C236,131.315436 233.30895,134 230.003682,134 L5.99631823,134 C2.68464312,134 0,131.323299 0,128.003858 L0,5.99614205 C0,2.68456424 2.69105036,0 5.99631823,0 L230.003682,0 C233.315357,0 236,2.6767008 236,5.99614205 L236,10.9289322 Z" id="Combined-Shape" stroke="#A9BBC9" fill="#FFFFFF"></path>
                <text id="A-common-dream,-born" font-family="Roboto-Light, Roboto" font-size="14" font-weight="300" line-spacing="18" letter-spacing="-0.200000003" fill="#738694">
                    <tspan x="15" y="25">When the user is overspending his </tspan>
                    <tspan x="15" y="43">screen time, the budget alarm will </tspan>
                    <tspan x="15" y="61">be sent notice pop up to the </tspan>
                    <tspan x="15" y="79">screen to remind him to reduce </tspan>
                    <tspan x="15" y="97">screen time. The spending bar will </tspan>
                    <tspan x="15" y="115">turn to an alarming color. </tspan>
                </text>
            </g>
        </g>
    </g>
</svg>