<svg id="图层_1" data-name="图层 1" xmlns="http://www.w3.org/2000/svg" viewBox="0 0 246.24 46.84"><defs><style>.cls-1{fill:#231815;}</style></defs><title>bos_text_black</title><path class="cls-1" d="M58.33,10.63a6,6,0,0,1-2.43,1l-.44-.45a4.59,4.59,0,0,0,1.17-.31,5.65,5.65,0,0,0,1-.53A2.22,2.22,0,0,0,59,8.51q0-2-3.14-3.32a12.86,12.86,0,0,0-4.83-1,16.87,16.87,0,0,0-6.19,1.55l1,1.17c.36.4.74.84,1.15,1.31a5.83,5.83,0,0,1,1.2,3.41,6.1,6.1,0,0,1-1.64,4.29A12.44,12.44,0,0,1,45,17.25a16.3,16.3,0,0,1-2.31,1.48,10.48,10.48,0,0,1,2.13,6.82,14.27,14.27,0,0,0,4.78-3l.36.35a19.87,19.87,0,0,1-5.41,3.37,10.84,10.84,0,0,1-1.81,3.16,11.23,11.23,0,0,1-2.66,2.35,12.32,12.32,0,0,1-3.27,1.44,12.85,12.85,0,0,1-3.68.44c-2-.06-3-.75-3-2.08q0-2.79,4-4.12a19.36,19.36,0,0,1,6-.88c1-.89,1.46-2.53,1.46-4.92a15.38,15.38,0,0,0-.26-2.7l-.51.07-.64,0A2.22,2.22,0,0,1,39,18.71a1.08,1.08,0,0,1-.59-.9c0-.65.47-1,1.41-1a3.31,3.31,0,0,1,2.13,1c2.36-2.22,3.54-4.28,3.54-6.2q0-4.35-1.77-5.32c-1.12.57-2.78,2.34-5,5.32a9.12,9.12,0,0,0-1.11,2.1c-.35.9-.72,2-1.1,3.34a25.27,25.27,0,0,1-2.22,5.71,26.16,26.16,0,0,1-7.44,8.06A21.05,21.05,0,0,1,15.48,33.7a13.39,13.39,0,0,1-9.43-3.37,11.57,11.57,0,0,1-3.72-9,15.85,15.85,0,0,1,4.6-11.24A14.78,14.78,0,0,1,18,5.19a14.76,14.76,0,0,1,5.49,1.28c2.42-1.39,3.87-2.18,4.34-2.39A19.59,19.59,0,0,1,35,2.93a16.69,16.69,0,0,1,5.76.88l1.32.58,1.86.84c.48-.15.93-.31,1.38-.49l1.32-.53A15.16,15.16,0,0,1,51,3.64a13.77,13.77,0,0,1,5.27,1.15q3.38,1.45,3.37,3.72A2.63,2.63,0,0,1,58.33,10.63ZM35,3.37a19.39,19.39,0,0,0-6.38.93,21.93,21.93,0,0,0-4.69,2.53Q30.22,10.76,30.22,17a3.88,3.88,0,0,1-.07.42c0,.25-.09.63-.15,1.13l.88-1.51a3.68,3.68,0,0,0,.49-1.59,7.27,7.27,0,0,0-.93-3l.49-.13c.2.38.36.66.46.84a2.84,2.84,0,0,0,.2.31,4.8,4.8,0,0,1,.36,1.9c0,1.39-.77,2.9-2.39,4.52a10.38,10.38,0,0,1-1.31,2.52,9.52,9.52,0,0,1-1.9,2A8.85,8.85,0,0,1,24,25.75a7.9,7.9,0,0,1-2.7.47V25.6a6,6,0,0,0,3.58-.89,6.84,6.84,0,0,0,3.59-4.07,11.57,11.57,0,0,1-3.14.66,6,6,0,0,1-4.74-2,7.29,7.29,0,0,1-1.64-4.92,8.4,8.4,0,0,1,1.68-5c.24-.29,1-1.09,2.35-2.39a10.33,10.33,0,0,0-5-1.28A14.24,14.24,0,0,0,7.33,10.41,15.26,15.26,0,0,0,2.77,21.3,11.1,11.1,0,0,0,6.44,30a13.05,13.05,0,0,0,9,3.1,13,13,0,0,0,6-1.63,20.5,20.5,0,0,0,5-3.83,20.85,20.85,0,0,0,3.83-5.78c.06-.12.22-.53.49-1.22s.64-1.69,1.15-3a22.63,22.63,0,0,1,4.38-7.08,18,18,0,0,1,6.73-4.87A14.7,14.7,0,0,0,35,3.37ZM23.49,7.14c-.68.64-1.26,1.23-1.73,1.74a10.29,10.29,0,0,0-1.06,1.35,7.46,7.46,0,0,0-1.24,4.17A6.69,6.69,0,0,0,21,19a5.46,5.46,0,0,0,4.34,1.77,5.34,5.34,0,0,0,3.72-1.46A6.42,6.42,0,0,0,29.73,17Q29.73,10.59,23.49,7.14ZM34,28.12c-2.21.77-3.32,1.93-3.32,3.5,0,.83.62,1.25,1.86,1.28,1.68.06,3.4-.81,5.14-2.61l2.3-3A18.29,18.29,0,0,0,34,28.12Zm5.8-10.71c-.35,0-.53.13-.53.4s.3.62.89.62a3.13,3.13,0,0,0,1-.18A1.9,1.9,0,0,0,39.78,17.41Z" transform="translate(-2.33 -1.11)"/><path class="cls-1" d="M60.9,27c-.44.18-1.11.4-2,.67a14.18,14.18,0,0,1-3.23,3.45,9.39,9.39,0,0,1-5.54,2.08,2.66,2.66,0,0,1-1.35-.35A4.17,4.17,0,0,1,47.73,32,3.9,3.9,0,0,1,47,30.67a4.9,4.9,0,0,1-.24-1.53,9.11,9.11,0,0,1,3.1-6.77,9.6,9.6,0,0,1,6.9-3.06,3.13,3.13,0,0,1,2.61,1.24,4.6,4.6,0,0,1,1,2.92,5.26,5.26,0,0,1-.4,2l-.26.62c-.12.26-.26.56-.4.88a5.16,5.16,0,0,0,1.32-.48A14.83,14.83,0,0,0,63.25,25,26.16,26.16,0,0,0,66,22.63l.36.31A19.31,19.31,0,0,1,60.9,27Zm-4.25-7.17q-2.09,0-4.78,4.65-2.57,4.34-2.57,6.69c0,1,.28,1.46.84,1.46q2.31,0,5.49-5.32c-1.62-.53-2.43-1.25-2.43-2.17a1.23,1.23,0,0,1,1.37-1.41.82.82,0,0,1,.93.93c0,.5-.4.79-1.2.88A1.87,1.87,0,0,0,56,26.88,14.7,14.7,0,0,0,57.71,21C57.71,20.21,57.36,19.84,56.65,19.84Z" transform="translate(-2.33 -1.11)"/><path class="cls-1" d="M81.44,25.15q-1.68,1.91-4.87,5.45-2.47,2.65-4.47,2.66c-1.59,0-2.45-.89-2.57-2.66a4.47,4.47,0,0,1,.93-2.7l3.68-5.62A3.38,3.38,0,0,0,74.76,21c0-.27-.22-.4-.67-.4q-1.73,0-4.42,3.1-1,1.16-1.77,2.28c-.54.75-1,1.51-1.51,2.28-.24.44-.46.88-.69,1.33s-.45.87-.68,1.28c-.8,1.33-1.39,2-1.77,2a3.33,3.33,0,0,1-.87-.17,3,3,0,0,0-.77-.18c-.24,0-.78.43-1.64,1.28l6.77-13c.39-.71.83-1.06,1.33-1.06a2.45,2.45,0,0,1,.84.18,2.63,2.63,0,0,0,.71.17q.18,0,.75-.57a3.65,3.65,0,0,1,.89-.71L69,23q4.26-3.72,6.64-3.72a1.8,1.8,0,0,1,2,2,4.44,4.44,0,0,1-.84,2.39l-4.12,6.42a6.17,6.17,0,0,0-.8,1.5c0,.53.31.8.93.8.86,0,2.08-.89,3.68-2.66L83,22.63l.35.31Z" transform="translate(-2.33 -1.11)"/><path class="cls-1" d="M91.85,28.92Q87.16,33.21,84,33.21a3.67,3.67,0,0,1-2.75-1.13,3.85,3.85,0,0,1-1.11-2.81A9.22,9.22,0,0,1,83.88,22a10.05,10.05,0,0,1,6.33-2.66A2.5,2.5,0,0,1,92,20a2.29,2.29,0,0,1,.75,1.73q0,2.78-4,4.64a12.92,12.92,0,0,1-5.13,1.42,7.57,7.57,0,0,0-.8,3.1c0,1.09.4,1.64,1.2,1.64q2.91,0,7.43-4a29.93,29.93,0,0,0,3.15-3.07,22.07,22.07,0,0,0,2.12-2.86l.36.31A29.12,29.12,0,0,1,91.85,28.92Zm-2.26-9q-2.13,0-5.58,6.86,1.59,0,4.07-2.13t2.44-3.72C90.52,20.23,90.21,19.89,89.59,19.89Z" transform="translate(-2.33 -1.11)"/><path class="cls-1" d="M102.69,29.36a10.59,10.59,0,0,1-4.29,1.55,6.35,6.35,0,0,1-4.92,2.39Q90,33.3,90,30.2a2.76,2.76,0,0,1,.57-1.72,1.84,1.84,0,0,1,1.55-.76,2.72,2.72,0,0,1,1.64.8,7.37,7.37,0,0,0,1.51,1.15,3.48,3.48,0,0,0,1.19-1.77,5.42,5.42,0,0,0,.44-2.13,7.2,7.2,0,0,0-.44-1.94,10.27,10.27,0,0,1-.4-2.35,7.57,7.57,0,0,1,.49-2.66q.66-1.59,1.86-1.59c.74,0,1.11.27,1.11.8a8.79,8.79,0,0,1-1.38,3.41,13,13,0,0,1,1.33,4.82,7.64,7.64,0,0,1-.8,4,10.79,10.79,0,0,0,4.17-1.73,21,21,0,0,0,4.82-5.93l.36.31Q105.22,27.64,102.69,29.36Zm-9.12-.18a3,3,0,0,0-1.15-.66c-.53,0-.79.29-.79.88s.47,1.07,1.41,1.24,1.48,0,1.77-.53A6.8,6.8,0,0,1,93.57,29.18Zm4.87-11.55q-.75,0-.84,1.86a2.07,2.07,0,0,0,.27,1.41A5,5,0,0,0,99,18.12C99,17.76,98.8,17.6,98.44,17.63Z" transform="translate(-2.33 -1.11)"/><path class="cls-1" d="M130.89,27c-.44.18-1.1.4-2,.67a14,14,0,0,1-3.23,3.45,9.36,9.36,0,0,1-5.53,2.08,2.61,2.61,0,0,1-1.35-.35,4.21,4.21,0,0,1-1.07-.91,3.88,3.88,0,0,1-.7-1.28,4.63,4.63,0,0,1-.25-1.53,9.11,9.11,0,0,1,3.1-6.77,9.63,9.63,0,0,1,6.91-3.06,3.14,3.14,0,0,1,2.61,1.24,4.59,4.59,0,0,1,1,2.92,5.26,5.26,0,0,1-.4,2c-.05.15-.14.35-.26.62l-.4.88a5.07,5.07,0,0,0,1.33-.48A14.77,14.77,0,0,0,133.24,25,26.21,26.21,0,0,0,136,22.63l.35.31A19.16,19.16,0,0,1,130.89,27Zm-4.25-7.17c-1.38,0-3,1.55-4.78,4.65q-2.56,4.34-2.57,6.69c0,1,.29,1.46.85,1.46q2.3,0,5.49-5.32c-1.63-.53-2.44-1.25-2.44-2.17a1.23,1.23,0,0,1,1.37-1.41.82.82,0,0,1,.93.93c0,.5-.4.79-1.19.88A1.86,1.86,0,0,0,126,26.88,14.74,14.74,0,0,0,127.71,21,1,1,0,0,0,126.64,19.84Z" transform="translate(-2.33 -1.11)"/><path class="cls-1" d="M147.76,15.33a26.3,26.3,0,0,1-7,5.57h2.44l-.44.8h-3.15q-1.5,3-3,5.91c-1,2-2,3.94-2.93,5.91a54.42,54.42,0,0,1-7.08,10.89c-2.18,2.36-4.43,3.55-6.73,3.55a4.55,4.55,0,0,1-3.12-1.11A3.66,3.66,0,0,1,115.49,44a4.72,4.72,0,0,1,1.24-3.19,3.76,3.76,0,0,1,3-1.46,2,2,0,0,1,1.53.69,2.23,2.23,0,0,1,.64,1.57,1.83,1.83,0,0,1-.75,1.51,2.71,2.71,0,0,1-1.68.57c-.53,0-1-.38-1.46-1.15.91-.12,1.37-.35,1.37-.71,0-.77-.31-1.15-.93-1.15s-1.17.49-1.64,1.46a5.1,5.1,0,0,0-.66,2.26,2.6,2.6,0,0,0,1.24,2.26,4,4,0,0,0,2.52.84q2.52,0,5-3.54a73.67,73.67,0,0,0,4.83-9.26q2-4.29,3.63-7.52c1.06-2.16,2-4,2.79-5.45h-2.61l.44-.8h2.66q1.45-2.52,2.94-4.73c1-1.48,2-2.87,3-4.16Q147.32,5.89,150,5.9a1.75,1.75,0,0,1,1.17.5,1.53,1.53,0,0,1,.56,1.13C151.75,9.87,150.42,12.46,147.76,15.33Zm1.51-8.73c-.71,0-2.28,2-4.7,6a81.44,81.44,0,0,0-4.51,8.32,32.76,32.76,0,0,0,7.83-7.83C149.31,11,150,9.28,150,7.89Q150,6.6,149.27,6.6Z" transform="translate(-2.33 -1.11)"/><path class="cls-1" d="M185.93,10.41c-1.6,1.92-2.51,2.88-2.75,2.88a71.51,71.51,0,0,1,1.06,9.08,10,10,0,0,1-3.32,7.57,11,11,0,0,1-7.83,3.1,9.62,9.62,0,0,1-7-2.79,9.48,9.48,0,0,1-2.88-7,12.3,12.3,0,0,1,3.06-7.74,6.17,6.17,0,0,1-.75-1.26A10.44,10.44,0,0,1,165,12.8a10.34,10.34,0,0,0-2.1,1.42,13.5,13.5,0,0,0-1.79,2A14.29,14.29,0,0,0,158.34,25a13.87,13.87,0,0,0,4.08,10,13.46,13.46,0,0,0,10,4.16,15,15,0,0,0,9.69-3.85v.36a13.48,13.48,0,0,1-9.69,4,14,14,0,0,1-10.27-4.34A14.1,14.1,0,0,1,157.86,25a14.46,14.46,0,0,1,3-9.26,19.42,19.42,0,0,1,4-3.45q0-4.69,4.51-8.06a15.18,15.18,0,0,1,9.25-3.1c3,0,5,.79,6.25,2.35A2.38,2.38,0,0,1,187,2.93c1.06.18,1.59,1,1.59,2.39Q188.58,7.23,185.93,10.41Zm-4.12,3.72c-.3.21-.73.48-1.3.82s-1.31.76-2.22,1.26a8,8,0,0,1,.88,3.76,4.73,4.73,0,0,1-2,3.68,6.19,6.19,0,0,1-4,1.64,3.41,3.41,0,0,1-2.35-.89,2.85,2.85,0,0,1-1-2.21,3.24,3.24,0,0,1,.77-2.15,2.43,2.43,0,0,1,1.93-.91c.68,0,1.34.55,2,1.64-1.65.15-2.48.68-2.48,1.6,0,1.23.67,1.86,2,1.86a4.1,4.1,0,0,0,3.18-1.51,5,5,0,0,0,1.33-3.45,6.08,6.08,0,0,0-.71-2.79,12.91,12.91,0,0,1-5.44,1.37c-2.81,0-4.75-.63-5.85-1.9q-3,3.75-2.87,7.34a9.61,9.61,0,0,0,1.68,5.05,6.76,6.76,0,0,0,6,3.46q4.69,0,7.84-5.67a20.19,20.19,0,0,0,2.61-9.87ZM178.66,1.47a14.91,14.91,0,0,0-8.32,2.7q-4.83,3.18-5,8a17.51,17.51,0,0,1,8-2.79c1.6-.21,3.12-.36,4.56-.44s2.85-.14,4.21-.14a7.87,7.87,0,0,1,.62-2.87,3.89,3.89,0,0,1,1.77-2.26Q182.61,1.47,178.66,1.47Zm-5.09,8.28a16.74,16.74,0,0,0-5.93,1.59c-.24.15-.54.32-.91.51s-.8.44-1.3.73a6.75,6.75,0,0,0,1.24,2.61,9.17,9.17,0,0,1,5.84-2.12,6.73,6.73,0,0,1,3.06.62,6.81,6.81,0,0,1,1.1.77A13.65,13.65,0,0,1,178,15.72a25.81,25.81,0,0,0,3.85-2.25l.22-4.25C179.36,9.28,176.52,9.45,173.57,9.75Zm-1.06,3.72A7.45,7.45,0,0,0,167,15.59q1.54,1.82,5.4,1.82A10.7,10.7,0,0,0,177.47,16,6,6,0,0,0,172.51,13.47Zm13.73-10a1.33,1.33,0,0,0-.58.2,3.92,3.92,0,0,1-.49.24,3,3,0,0,1,.45,1.64,3.69,3.69,0,0,1-.2,1.17,4.76,4.76,0,0,1-.54,1.11,3.61,3.61,0,0,1-.81.89,2.88,2.88,0,0,1-1,.51l.09,3.32q4.25-3.9,4.25-7.57C187.39,4,187,3.46,186.24,3.46Zm-3.19,5.18c.53,0,1-.44,1.5-1.24a4,4,0,0,0,.53-1.95,2.61,2.61,0,0,0-.31-1.28A7.25,7.25,0,0,0,183.05,8.64Z" transform="translate(-2.33 -1.11)"/><path class="cls-1" d="M200.49,30a15.84,15.84,0,0,1-9.16,3.23q-4.43,0-4.43-3.94a9.3,9.3,0,0,1,3.36-7.48,10.07,10.07,0,0,1,6.6-2.48,3,3,0,0,1,1.84.64,2,2,0,0,1,.82,1.66,2.5,2.5,0,0,1-.82,1.82,2.59,2.59,0,0,1-1.84.8c-1.06,0-1.59-.39-1.59-1.16a2.35,2.35,0,0,1,.44-1.5,2.13,2.13,0,0,0,1.28.57,1.3,1.3,0,0,0,.89-.53,1.51,1.51,0,0,0,.49-.93c0-.62-.51-.93-1.51-.93q-2,0-4.83,4.52-2.7,4.29-2.7,6.77c0,1.1.67,1.64,2,1.64a15.44,15.44,0,0,0,8.89-3.23,27.34,27.34,0,0,0,3.64-3.08A33.45,33.45,0,0,0,207,22.63l.36.31A28.6,28.6,0,0,1,200.49,30Z" transform="translate(-2.33 -1.11)"/><path class="cls-1" d="M215.85,28.92q-4.69,4.29-7.88,4.29a3.66,3.66,0,0,1-2.74-1.13,3.85,3.85,0,0,1-1.11-2.81,9.24,9.24,0,0,1,3.76-7.3,10.1,10.1,0,0,1,6.33-2.66A2.54,2.54,0,0,1,216,20a2.29,2.29,0,0,1,.75,1.73q0,2.78-4,4.64a13,13,0,0,1-5.14,1.42,7.54,7.54,0,0,0-.79,3.1c0,1.09.4,1.64,1.19,1.64q2.92,0,7.44-4a28.83,28.83,0,0,0,3.14-3.07,21.31,21.31,0,0,0,2.13-2.86l.35.31A28.81,28.81,0,0,1,215.85,28.92Zm-2.25-9q-2.13,0-5.58,6.86,1.59,0,4.07-2.13t2.43-3.72C214.52,20.23,214.21,19.89,213.6,19.89Z" transform="translate(-2.33 -1.11)"/><path class="cls-1" d="M236.17,25.15q-1.68,1.91-4.87,5.45-2.48,2.65-4.47,2.66c-1.59,0-2.45-.89-2.56-2.66a4.47,4.47,0,0,1,.93-2.7l3.67-5.62a3.38,3.38,0,0,0,.62-1.33c0-.27-.22-.4-.66-.4-1.16,0-2.63,1-4.43,3.1q-1,1.16-1.77,2.28c-.53.75-1,1.51-1.51,2.28-.23.44-.46.88-.68,1.33s-.45.87-.69,1.28c-.8,1.33-1.39,2-1.77,2a3.2,3.2,0,0,1-.86-.17,3,3,0,0,0-.78-.18c-.24,0-.78.43-1.64,1.28l6.78-13c.38-.71.82-1.06,1.32-1.06a2.54,2.54,0,0,1,.85.18,2.58,2.58,0,0,0,.7.17c.12,0,.37-.19.76-.57a3.5,3.5,0,0,1,.88-.71L223.73,23q4.26-3.72,6.64-3.72a1.8,1.8,0,0,1,2,2,4.44,4.44,0,0,1-.84,2.39l-4.12,6.42a5.93,5.93,0,0,0-.79,1.5c0,.53.31.8.93.8.85,0,2.08-.89,3.67-2.66l6.51-7.17.35.31C238,23.15,237.3,23.89,236.17,25.15Z" transform="translate(-2.33 -1.11)"/><path class="cls-1" d="M247.13,25c-.69.94-1.6,2.12-2.72,3.57q-3.63,4.69-7.75,4.69a2,2,0,0,1-1.73-.93,3.35,3.35,0,0,1-.62-2,7.28,7.28,0,0,1,.93-3l3.46-7h-3.23l.7-.66h3.55a17,17,0,0,0,3.94-3.5q.48-.61,1.26-1.71c.51-.72,1.11-1.6,1.79-2.63h.49l-4.47,7.84h3.32l-.27.66h-3.32l-4.6,8.06a6.82,6.82,0,0,0-1,2.34,2.15,2.15,0,0,0,.36,1.09c.23.4.5.6.79.6a6.14,6.14,0,0,0,3.28-1.55c.53-.42,1-.84,1.46-1.26a12.61,12.61,0,0,0,1.2-1.35c.41-.51,1-1.22,1.66-2.15s1.55-2.06,2.59-3.39l.35.31Q248.18,23.57,247.13,25Z" transform="translate(-2.33 -1.11)"/></svg>