<?xml version="1.0" encoding="UTF-8"?>
<svg width="480px" height="550px" viewBox="0 0 480 550" version="1.1" xmlns="http://www.w3.org/2000/svg" xmlns:xlink="http://www.w3.org/1999/xlink">
    <!-- Generator: Sketch 49 (51002) - http://www.bohemiancoding.com/sketch -->
    <title>map</title>
    <desc>Created with Sketch.</desc>
    <defs></defs>
    <g id="map" stroke="none" stroke-width="1" fill="none" fill-rule="evenodd">
        <g id="Basic-Flowcharts-/-Big-/-Decision" transform="translate(112.000000, 84.000000)">
            <g id="Decision">
                <rect id="Rectangle-7" fill="#F9F9FA" transform="translate(43.000000, 43.000000) rotate(45.000000) translate(-43.000000, -43.000000) " x="12.7183099" y="12.7183099" width="60.5633803" height="60.5633803"></rect>
                <text font-family="Roboto-Regular, Roboto" font-size="16" font-weight="normal" line-spacing="20" letter-spacing="-0.400000006" fill="#F8B62D">
                    <tspan x="27.9601563" y="51.943662">Dine</tspan>
                </text>
            </g>
        </g>
        <g id="Basic-Flowcharts-/-Big-/-Decision" transform="translate(112.000000, 312.000000)">
            <g id="Decision">
                <rect id="Rectangle-7" fill="#F9F9FA" transform="translate(43.000000, 43.000000) rotate(45.000000) translate(-43.000000, -43.000000) " x="12.7183099" y="12.7183099" width="60.5633803" height="60.5633803"></rect>
                <text font-family="Roboto-Regular, Roboto" font-size="16" font-weight="normal" line-spacing="20" letter-spacing="-0.400000006" fill="#F8B62D">
                    <tspan x="25.6367188" y="51.943662">Drink</tspan>
                </text>
            </g>
        </g>
        <g id="Decision" transform="translate(6.000000, 439.000000)">
            <rect id="Rectangle-7" fill="#F9F9FA" transform="translate(43.000000, 43.000000) rotate(45.000000) translate(-43.000000, -43.000000) " x="12.7183099" y="12.7183099" width="60.5633803" height="60.5633803"></rect>
            <text id="My-Order" font-family="Roboto-Regular, Roboto" font-size="16" font-weight="normal" line-spacing="20" letter-spacing="-0.400000006" fill="#F8B62D">
                <tspan x="31.6304688" y="38.943662">My </tspan>
                <tspan x="23.4101563" y="58.943662">Order</tspan>
            </text>
        </g>
        <g id="Basic-Flowcharts-/-Big-/-Decision" transform="translate(4.000000, 201.000000)">
            <g id="Decision">
                <rect id="Rectangle-7" fill="#F9F9FA" transform="translate(43.000000, 43.000000) rotate(45.000000) translate(-43.000000, -43.000000) " x="12.7183099" y="12.7183099" width="60.5633803" height="60.5633803"></rect>
                <text font-family="Roboto-Regular, Roboto" font-size="16" font-weight="normal" line-spacing="20" letter-spacing="-0.400000006" fill="#F8B62D">
                    <tspan x="23.753125" y="51.943662">Menu</tspan>
                </text>
            </g>
        </g>
        <g id="Basic-Flowcharts-/-Big-/-Process" transform="translate(227.000000, 21.000000)">
            <g id="Process">
                <rect id="Rectangle-6" fill="#F9F9FA" x="0" y="0" width="97" height="36"></rect>
                <text font-family="Roboto-Regular, Roboto" font-size="16" font-weight="normal" line-spacing="20" letter-spacing="-0.400000006" fill="#F8B62D">
                    <tspan x="17.5523438" y="27">Dim Sum</tspan>
                </text>
            </g>
        </g>
        <g id="Process" transform="translate(227.000000, 72.000000)">
            <rect id="Rectangle-6" fill="#F9F9FA" x="0" y="0" width="97" height="48"></rect>
            <text font-family="Roboto-Regular, Roboto" font-size="16" font-weight="normal" line-spacing="20" letter-spacing="-0.400000006" fill="#F8B62D">
                <tspan x="20.571875" y="21">Roasted </tspan>
                <tspan x="35.5195313" y="41">Grill</tspan>
            </text>
        </g>
        <g id="Basic-Flowcharts-/-Big-/-Process" transform="translate(227.000000, 135.000000)">
            <g id="Process">
                <rect id="Rectangle-6" fill="#F9F9FA" x="0" y="0" width="97" height="36"></rect>
                <text font-family="Roboto-Regular, Roboto" font-size="16" font-weight="normal" line-spacing="20" letter-spacing="-0.400000006" fill="#F8B62D">
                    <tspan x="20.15" y="27">Seafood</tspan>
                </text>
            </g>
        </g>
        <g id="Basic-Flowcharts-/-Big-/-Process" transform="translate(227.000000, 192.000000)">
            <g id="Process">
                <rect id="Rectangle-6" fill="#F9F9FA" x="0" y="0" width="97" height="36"></rect>
                <text font-family="Roboto-Regular, Roboto" font-size="16" font-weight="normal" line-spacing="20" letter-spacing="-0.400000006" fill="#F8B62D">
                    <tspan x="14.784375" y="27">Vegetable</tspan>
                </text>
            </g>
        </g>
        <g id="Basic-Flowcharts-/-Big-/-Process" transform="translate(379.000000, 218.000000)">
            <g id="Process">
                <rect id="Rectangle-6" fill="#F9F9FA" x="0" y="0" width="97" height="48"></rect>
                <text font-family="Roboto-Regular, Roboto" font-size="16" font-weight="normal" line-spacing="20" letter-spacing="-0.400000006" fill="#F8B62D">
                    <tspan x="13.7023438" y="31">Check Out</tspan>
                </text>
            </g>
        </g>
        <g id="Basic-Flowcharts-/-Big-/-Process" transform="translate(227.000000, 250.000000)">
            <g id="Process">
                <rect id="Rectangle-6" fill="#F9F9FA" x="0" y="0" width="97" height="36"></rect>
                <text font-family="Roboto-Regular, Roboto" font-size="16" font-weight="normal" line-spacing="20" letter-spacing="-0.400000006" fill="#F8B62D">
                    <tspan x="31.6085938" y="27">Wine</tspan>
                </text>
            </g>
        </g>
        <g id="Basic-Flowcharts-/-Big-/-Process" transform="translate(227.000000, 307.000000)">
            <g id="Process">
                <rect id="Rectangle-6" fill="#F9F9FA" x="0" y="0" width="97" height="36"></rect>
                <text font-family="Roboto-Regular, Roboto" font-size="16" font-weight="normal" line-spacing="20" letter-spacing="-0.400000006" fill="#F8B62D">
                    <tspan x="21.240625" y="27">Cocktail</tspan>
                </text>
            </g>
        </g>
        <g id="Basic-Flowcharts-/-Big-/-Process" transform="translate(227.000000, 364.000000)">
            <g id="Process">
                <rect id="Rectangle-6" fill="#F9F9FA" x="0" y="0" width="97" height="36"></rect>
                <text font-family="Roboto-Regular, Roboto" font-size="16" font-weight="normal" line-spacing="20" letter-spacing="-0.400000006" fill="#F8B62D">
                    <tspan x="21.3296875" y="27">Chinese </tspan>
                    <tspan x="36.1234375" y="47">Tea</tspan>
                </text>
            </g>
        </g>
        <g id="Basic-Flowcharts-/-Big-/-Process" transform="translate(227.000000, 421.000000)">
            <g id="Process">
                <rect id="Rectangle-6" fill="#F9F9FA" x="0" y="0" width="97" height="36"></rect>
                <text font-family="Roboto-Regular, Roboto" font-size="16" font-weight="normal" line-spacing="20" letter-spacing="-0.400000006" fill="#F8B62D">
                    <tspan x="26.1101563" y="27">Others</tspan>
                </text>
            </g>
        </g>
        <g id="Arrows-/-Basic-/-#12" transform="translate(206.500000, 125.500000) scale(-1, 1) translate(-206.500000, -125.500000) translate(183.000000, 37.000000)">
            <g id="#12">
                <path d="M2.5,2.5 L10.5018149,2.5 C13.814521,2.5 16.5,5.18442368 16.5,8.49562468 L16.5,168.504375 C16.5,171.815667 13.8061783,174.5 10.5066963,174.5 L2.6985508,174.5" id="Line" stroke="#F8B62D"></path>
                <circle id="Oval-3" fill="#F8B62D" cx="2.5" cy="2.5" r="2.5"></circle>
                <circle id="Oval-3" fill="#F8B62D" cx="2.5" cy="174.5" r="2.5"></circle>
                <path d="M17,89.60625 L43.5,89.60625" id="Line" stroke="#F8B62D"></path>
            </g>
        </g>
        <g id="Arrows-/-Basic-/-#12" transform="translate(206.500000, 354.500000) scale(-1, 1) translate(-206.500000, -354.500000) translate(183.000000, 266.000000)">
            <g id="#12">
                <path d="M2.5,2.5 L10.5018149,2.5 C13.814521,2.5 16.5,5.18442368 16.5,8.49562468 L16.5,168.504375 C16.5,171.815667 13.8061783,174.5 10.5066963,174.5 L2.6985508,174.5" id="Line" stroke="#F8B62D"></path>
                <circle id="Oval-3" fill="#F8B62D" cx="2.5" cy="2.5" r="2.5"></circle>
                <circle id="Oval-3" fill="#F8B62D" cx="2.5" cy="174.5" r="2.5"></circle>
                <path d="M17,89.60625 L43.5,89.60625" id="Line" stroke="#F8B62D"></path>
            </g>
        </g>
        <g id="Arrows-/-Basic-/-#12" transform="translate(95.500000, 242.000000) scale(-1, 1) translate(-95.500000, -242.000000) translate(75.000000, 125.000000)">
            <g id="#12">
                <path d="M2.5,2.5 L6.5,2.5 C8.709139,2.5 10.5,4.29338183 10.5,6.49891791 L10.5,227.501082 C10.5,229.709623 8.71042146,231.5 6.49896787,231.5 L2.6134576,231.5" id="Line" stroke="#F8B62D"></path>
                <circle id="Oval-3" fill="#F8B62D" cx="2.5" cy="2.5" r="2.5"></circle>
                <circle id="Oval-3" fill="#F8B62D" cx="2.5" cy="231.5" r="2.5"></circle>
                <path d="M11,118.4625 L37.5,118.4625" id="Line" stroke="#F8B62D"></path>
            </g>
        </g>
        <g id="Arrows-/-Basic-/-#12" transform="translate(319.000000, 37.000000)">
            <g id="#12">
                <path d="M2.5,2.5 L27.5045193,2.5 C30.8157319,2.5 33.5,5.19354922 33.5,8.49948746 L33.5,397.500513 C33.5,400.813938 30.8147567,403.5 27.4987212,403.5 L2.9396482,403.5" id="Line" stroke="#F8B62D"></path>
                <circle id="Oval-3" fill="#F8B62D" cx="2.5" cy="2.5" r="2.5"></circle>
                <circle id="Oval-3" fill="#F8B62D" cx="2.5" cy="403.5" r="2.5"></circle>
                <path d="M34,205.5375 L60.5,205.5375" id="Line" stroke="#F8B62D"></path>
            </g>
        </g>
        <g id="Arrows-/-Basic-/-#14" transform="translate(242.000000, 374.500000) rotate(-90.000000) translate(-242.000000, -374.500000) translate(122.000000, 184.000000)">
            <g id="#14" transform="translate(126.000000, 204.787500) scale(-1, -1) translate(-126.000000, -204.787500) translate(12.000000, 28.575000)">
                <path d="M2.5,2.5 L32.3702567,2.5 L221.500007,2.5 C224.813711,2.5 227.5,5.18623117 227.5,8.49140732 L227.5,351.925" id="Line" stroke="#F8B62D"></path>
                <circle id="Oval-3" fill="#F8B62D" cx="2.5" cy="2.5" r="2.5"></circle>
            </g>
        </g>
    </g>
</svg>