<?xml version="1.0" encoding="UTF-8"?>
<svg width="1508px" height="352px" viewBox="0 0 1508 352" version="1.1" xmlns="http://www.w3.org/2000/svg" xmlns:xlink="http://www.w3.org/1999/xlink">
    <!-- Generator: Sketch 49 (51002) - http://www.bohemiancoding.com/sketch -->
    <title>website site map</title>
    <desc>Created with Sketch.</desc>
    <defs></defs>
    <g id="website-site-map" stroke="none" stroke-width="1" fill="none" fill-rule="evenodd">
        <g id="Basic-Flowcharts-/-Big-/-Process" transform="translate(497.000000, 191.000000)">
            <g id="Process">
                <rect id="Rectangle-6" fill="#F9F9FA" x="0" y="0" width="133" height="36"></rect>
                <text font-family="Roboto-Regular, Roboto" font-size="16" font-weight="normal" line-spacing="20" letter-spacing="-0.400000006" fill="#F8B62D">
                    <tspan x="30.4328125" y="27">Dine Menu</tspan>
                </text>
            </g>
        </g>
        <g id="Basic-Flowcharts-/-Big-/-Process" transform="translate(275.000000, 191.000000)">
            <g id="Process">
                <rect id="Rectangle-6" fill="#F9F9FA" x="0" y="0" width="133" height="36"></rect>
                <text font-family="Roboto-Regular, Roboto" font-size="16" font-weight="normal" line-spacing="20" letter-spacing="-0.400000006" fill="#F8B62D">
                    <tspan x="17.56875" y="27">Welcome Intro</tspan>
                </text>
            </g>
        </g>
        <g id="Basic-Flowcharts-/-Big-/-Process" transform="translate(715.000000, 191.000000)">
            <g id="Process">
                <rect id="Rectangle-6" fill="#F9F9FA" x="0" y="0" width="133" height="36"></rect>
                <text font-family="Roboto-Regular, Roboto" font-size="16" font-weight="normal" line-spacing="20" letter-spacing="-0.400000006" fill="#F8B62D">
                    <tspan x="47.253125" y="27">Menu</tspan>
                </text>
            </g>
        </g>
        <g id="Basic-Flowcharts-/-Big-/-Process" transform="translate(931.000000, 191.000000)">
            <g id="Process">
                <rect id="Rectangle-6" fill="#F9F9FA" x="0" y="0" width="133" height="36"></rect>
                <text font-family="Roboto-Regular, Roboto" font-size="16" font-weight="normal" line-spacing="20" letter-spacing="-0.400000006" fill="#F8B62D">
                    <tspan x="25.8648438" y="27">Introduction</tspan>
                </text>
            </g>
        </g>
        <g id="Basic-Flowcharts-/-Big-/-Process" transform="translate(1150.000000, 191.000000)">
            <g id="Process">
                <rect id="Rectangle-6" fill="#F9F9FA" x="0" y="0" width="133" height="36"></rect>
                <text font-family="Roboto-Regular, Roboto" font-size="16" font-weight="normal" line-spacing="20" letter-spacing="-0.400000006" fill="#F8B62D">
                    <tspan x="43.415625" y="27">Gallery</tspan>
                </text>
            </g>
        </g>
        <g id="Basic-Flowcharts-/-Big-/-Process" transform="translate(1364.000000, 191.000000)">
            <g id="Process">
                <rect id="Rectangle-6" fill="#F9F9FA" x="0" y="0" width="133" height="36"></rect>
                <text font-family="Roboto-Regular, Roboto" font-size="16" font-weight="normal" line-spacing="20" letter-spacing="-0.400000006" fill="#F8B62D">
                    <tspan x="39.9507813" y="27">Contact</tspan>
                </text>
            </g>
        </g>
        <g id="Basic-Flowcharts-/-Big-/-Process" transform="translate(497.000000, 250.000000)">
            <g id="Process">
                <rect id="Rectangle-6" fill="#F9F9FA" x="0" y="0" width="133" height="36"></rect>
                <text font-family="Roboto-Regular, Roboto" font-size="16" font-weight="normal" line-spacing="20" letter-spacing="-0.400000006" fill="#F8B62D">
                    <tspan x="26.6960938" y="27">Reservation</tspan>
                </text>
            </g>
        </g>
        <g id="Basic-Flowcharts-/-Big-/-Process" transform="translate(275.000000, 250.000000)">
            <g id="Process">
                <rect id="Rectangle-6" fill="#F9F9FA" x="0" y="0" width="133" height="36"></rect>
                <text font-family="Roboto-Regular, Roboto" font-size="16" font-weight="normal" line-spacing="20" letter-spacing="-0.400000006" fill="#F8B62D">
                    <tspan x="26.3710938" y="27">Open Hours</tspan>
                </text>
            </g>
        </g>
        <g id="Basic-Flowcharts-/-Big-/-Process" transform="translate(715.000000, 250.000000)">
            <g id="Process">
                <rect id="Rectangle-6" fill="#F9F9FA" x="0" y="0" width="133" height="36"></rect>
                <text font-family="Roboto-Regular, Roboto" font-size="16" font-weight="normal" line-spacing="20" letter-spacing="-0.400000006" fill="#F8B62D">
                    <tspan x="26.6960938" y="27">Reservation</tspan>
                </text>
            </g>
        </g>
        <g id="Basic-Flowcharts-/-Big-/-Process" transform="translate(931.000000, 250.000000)">
            <g id="Process">
                <rect id="Rectangle-6" fill="#F9F9FA" x="0" y="0" width="133" height="36"></rect>
                <text font-family="Roboto-Regular, Roboto" font-size="16" font-weight="normal" line-spacing="20" letter-spacing="-0.400000006" fill="#F8B62D">
                    <tspan x="32.7023438" y="27">Timetable</tspan>
                </text>
            </g>
        </g>
        <g id="Basic-Flowcharts-/-Big-/-Process" transform="translate(1150.000000, 250.000000)">
            <g id="Process">
                <rect id="Rectangle-6" fill="#F9F9FA" x="0" y="0" width="133" height="36"></rect>
                <text font-family="Roboto-Regular, Roboto" font-size="16" font-weight="normal" line-spacing="20" letter-spacing="-0.400000006" fill="#F8B62D">
                    <tspan x="28.8015625" y="27">Publication</tspan>
                </text>
            </g>
        </g>
        <g id="Basic-Flowcharts-/-Big-/-Process" transform="translate(1364.000000, 250.000000)">
            <g id="Process">
                <rect id="Rectangle-6" fill="#F9F9FA" x="0" y="0" width="133" height="36"></rect>
                <text font-family="Roboto-Regular, Roboto" font-size="16" font-weight="normal" line-spacing="20" letter-spacing="-0.400000006" fill="#F8B62D">
                    <tspan x="25.453125" y="27">Google Map</tspan>
                </text>
            </g>
        </g>
        <g id="Basic-Flowcharts-/-Big-/-Process" transform="translate(497.000000, 307.000000)">
            <g id="Process">
                <rect id="Rectangle-6" fill="#F9F9FA" x="0" y="0" width="133" height="36"></rect>
                <text font-family="Roboto-Regular, Roboto" font-size="16" font-weight="normal" line-spacing="20" letter-spacing="-0.400000006" fill="#F8B62D">
                    <tspan x="42.4890625" y="27">Submit</tspan>
                </text>
            </g>
        </g>
        <g id="Basic-Flowcharts-/-Big-/-Process" transform="translate(275.000000, 307.000000)">
            <g id="Process">
                <rect id="Rectangle-6" fill="#F9F9FA" x="0" y="0" width="133" height="36"></rect>
                <text font-family="Roboto-Regular, Roboto" font-size="16" font-weight="normal" line-spacing="20" letter-spacing="-0.400000006" fill="#F8B62D">
                    <tspan x="38.5367188" y="27">Address</tspan>
                </text>
            </g>
        </g>
        <g id="Basic-Flowcharts-/-Big-/-Process" transform="translate(715.000000, 307.000000)">
            <g id="Process">
                <rect id="Rectangle-6" fill="#F9F9FA" x="0" y="0" width="133" height="36"></rect>
                <text font-family="Roboto-Regular, Roboto" font-size="16" font-weight="normal" line-spacing="20" letter-spacing="-0.400000006" fill="#F8B62D">
                    <tspan x="42.4890625" y="27">Submit</tspan>
                </text>
            </g>
        </g>
        <g id="Basic-Flowcharts-/-Big-/-Process" transform="translate(931.000000, 307.000000)">
            <g id="Process">
                <rect id="Rectangle-6" fill="#F9F9FA" x="0" y="0" width="133" height="36"></rect>
                <text font-family="Roboto-Regular, Roboto" font-size="16" font-weight="normal" line-spacing="20" letter-spacing="-0.400000006" fill="#F8B62D">
                    <tspan x="26.6960938" y="27">Reservation</tspan>
                </text>
            </g>
        </g>
        <g id="Basic-Flowcharts-/-Big-/-Process" transform="translate(1150.000000, 307.000000)">
            <g id="Process">
                <rect id="Rectangle-6" fill="#F9F9FA" x="0" y="0" width="133" height="36"></rect>
                <text font-family="Roboto-Regular, Roboto" font-size="16" font-weight="normal" line-spacing="20" letter-spacing="-0.400000006" fill="#F8B62D">
                    <tspan x="26.6960938" y="27">Reservation</tspan>
                </text>
            </g>
        </g>
        <g id="Basic-Flowcharts-/-Big-/-Process" transform="translate(1364.000000, 307.000000)">
            <g id="Process">
                <rect id="Rectangle-6" fill="#F9F9FA" x="0" y="0" width="133" height="36"></rect>
                <text font-family="Roboto-Regular, Roboto" font-size="16" font-weight="normal" line-spacing="20" letter-spacing="-0.400000006" fill="#F8B62D">
                    <tspan x="23.1617188" y="27">Social Media</tspan>
                </text>
            </g>
        </g>
        <g id="Arrows-/-Basic-/-#12" transform="translate(972.500000, 82.000000) scale(-1, 1) rotate(-90.000000) translate(-972.500000, -82.000000) translate(949.000000, -354.000000)">
            <g id="#12">
                <path d="M2.5,2.5 L10.5018149,2.5 C13.814521,2.5 16.5,5.18299127 16.5,8.49940307 L16.5,863.500597 C16.5,866.813976 13.8061783,869.5 10.5066963,869.5 L2.6985508,869.5" id="Line" stroke="#F8B62D"></path>
                <circle id="Oval-3" fill="#F8B62D" cx="2.5" cy="2.5" r="2.5"></circle>
                <circle id="Oval-3" fill="#F8B62D" cx="2.5" cy="869.5" r="2.5"></circle>
                <path d="M17,441.45 L43.5,441.45" id="Line" stroke="#F8B62D"></path>
            </g>
        </g>
        <g id="Basic-Flowcharts-/-Big-/-Terminal" transform="translate(8.000000, 9.000000)">
            <g id="Terminal">
                <rect id="Rectangle-6" fill="#F9F9FA" x="0" y="0" width="160" height="60" rx="30"></rect>
                <text font-family="Roboto-Regular, Roboto" font-size="16" font-weight="normal" line-spacing="20" letter-spacing="-0.400000006" fill="#F8B62D">
                    <tspan x="59.284375" y="35">Home</tspan>
                </text>
            </g>
        </g>
        <g id="Basic-Flowcharts-/-Big-/-Terminal" transform="translate(230.000000, 9.000000)">
            <g id="Terminal">
                <rect id="Rectangle-6" fill="#F9F9FA" x="0" y="0" width="160" height="60" rx="30"></rect>
                <text font-family="Roboto-Regular, Roboto" font-size="16" font-weight="normal" line-spacing="20" letter-spacing="-0.400000006" fill="#F8B62D">
                    <tspan x="53.0171875" y="35">Hearder</tspan>
                </text>
            </g>
        </g>
        <g id="Basic-Flowcharts-/-Big-/-Terminal" transform="translate(890.000000, 9.000000)">
            <g id="Terminal">
                <rect id="Rectangle-6" fill="#F9F9FA" x="0" y="0" width="160" height="60" rx="30"></rect>
                <text font-family="Roboto-Regular, Roboto" font-size="16" font-weight="normal" line-spacing="20" letter-spacing="-0.400000006" fill="#F8B62D">
                    <tspan x="21.4726563" y="35">Menu/Navigation</tspan>
                </text>
            </g>
        </g>
        <g id="Group" transform="translate(233.000000, 143.000000)">
            <g id="Arrows-/-Basic-/-#12" transform="translate(23.500000, 121.000000) scale(-1, 1) translate(-23.500000, -121.000000) translate(0.000000, 60.000000)">
                <g id="#12">
                    <path d="M2.5,2.5 L10.5018149,2.5 C13.814521,2.5 16.5,5.19163546 16.5,8.50341653 L16.5,113.496583 C16.5,116.812179 13.8061783,119.5 10.5066963,119.5 L2.6985508,119.5" id="Line" stroke="#F8B62D"></path>
                    <circle id="Oval-3" fill="#F8B62D" cx="2.5" cy="2.5" r="2.5"></circle>
                    <circle id="Oval-3" fill="#F8B62D" cx="2.5" cy="119.5" r="2.5"></circle>
                    <path d="M17,61.7625 L43.5,61.7625" id="Line" stroke="#F8B62D"></path>
                </g>
            </g>
            <path d="M3.5,121.5 L3.5,0.5" id="Line" stroke="#F8B62D" stroke-linecap="square"></path>
        </g>
        <g id="Group-Copy" transform="translate(463.000000, 143.000000)">
            <g id="Arrows-/-Basic-/-#12" transform="translate(23.500000, 121.000000) scale(-1, 1) translate(-23.500000, -121.000000) translate(0.000000, 60.000000)">
                <g id="#12">
                    <path d="M2.5,2.5 L10.5018149,2.5 C13.814521,2.5 16.5,5.19163546 16.5,8.50341653 L16.5,113.496583 C16.5,116.812179 13.8061783,119.5 10.5066963,119.5 L2.6985508,119.5" id="Line" stroke="#F8B62D"></path>
                    <circle id="Oval-3" fill="#F8B62D" cx="2.5" cy="2.5" r="2.5"></circle>
                    <circle id="Oval-3" fill="#F8B62D" cx="2.5" cy="119.5" r="2.5"></circle>
                    <path d="M17,61.7625 L43.5,61.7625" id="Line" stroke="#F8B62D"></path>
                </g>
            </g>
            <path d="M3.5,121.5 L3.5,0.5" id="Line" stroke="#F8B62D" stroke-linecap="square"></path>
        </g>
        <g id="Group-Copy-2" transform="translate(679.000000, 143.000000)">
            <g id="Arrows-/-Basic-/-#12" transform="translate(23.500000, 121.000000) scale(-1, 1) translate(-23.500000, -121.000000) translate(0.000000, 60.000000)">
                <g id="#12">
                    <path d="M2.5,2.5 L10.5018149,2.5 C13.814521,2.5 16.5,5.19163546 16.5,8.50341653 L16.5,113.496583 C16.5,116.812179 13.8061783,119.5 10.5066963,119.5 L2.6985508,119.5" id="Line" stroke="#F8B62D"></path>
                    <circle id="Oval-3" fill="#F8B62D" cx="2.5" cy="2.5" r="2.5"></circle>
                    <circle id="Oval-3" fill="#F8B62D" cx="2.5" cy="119.5" r="2.5"></circle>
                    <path d="M17,61.7625 L43.5,61.7625" id="Line" stroke="#F8B62D"></path>
                </g>
            </g>
            <path d="M3.5,121.5 L3.5,0.5" id="Line" stroke="#F8B62D" stroke-linecap="square"></path>
        </g>
        <g id="Group-Copy-3" transform="translate(893.000000, 143.000000)">
            <g id="Arrows-/-Basic-/-#12" transform="translate(23.500000, 121.000000) scale(-1, 1) translate(-23.500000, -121.000000) translate(0.000000, 60.000000)">
                <g id="#12">
                    <path d="M2.5,2.5 L10.5018149,2.5 C13.814521,2.5 16.5,5.19163546 16.5,8.50341653 L16.5,113.496583 C16.5,116.812179 13.8061783,119.5 10.5066963,119.5 L2.6985508,119.5" id="Line" stroke="#F8B62D"></path>
                    <circle id="Oval-3" fill="#F8B62D" cx="2.5" cy="2.5" r="2.5"></circle>
                    <circle id="Oval-3" fill="#F8B62D" cx="2.5" cy="119.5" r="2.5"></circle>
                    <path d="M17,61.7625 L43.5,61.7625" id="Line" stroke="#F8B62D"></path>
                </g>
            </g>
            <path d="M3.5,121.5 L3.5,0.5" id="Line" stroke="#F8B62D" stroke-linecap="square"></path>
        </g>
        <g id="Group-Copy-4" transform="translate(1108.000000, 143.000000)">
            <g id="Arrows-/-Basic-/-#12" transform="translate(23.500000, 121.000000) scale(-1, 1) translate(-23.500000, -121.000000) translate(0.000000, 60.000000)">
                <g id="#12">
                    <path d="M2.5,2.5 L10.5018149,2.5 C13.814521,2.5 16.5,5.19163546 16.5,8.50341653 L16.5,113.496583 C16.5,116.812179 13.8061783,119.5 10.5066963,119.5 L2.6985508,119.5" id="Line" stroke="#F8B62D"></path>
                    <circle id="Oval-3" fill="#F8B62D" cx="2.5" cy="2.5" r="2.5"></circle>
                    <circle id="Oval-3" fill="#F8B62D" cx="2.5" cy="119.5" r="2.5"></circle>
                    <path d="M17,61.7625 L43.5,61.7625" id="Line" stroke="#F8B62D"></path>
                </g>
            </g>
            <path d="M3.5,121.5 L3.5,0.5" id="Line" stroke="#F8B62D" stroke-linecap="square"></path>
        </g>
        <g id="Group-Copy-5" transform="translate(1321.000000, 143.000000)">
            <g id="Arrows-/-Basic-/-#12" transform="translate(23.500000, 121.000000) scale(-1, 1) translate(-23.500000, -121.000000) translate(0.000000, 60.000000)">
                <g id="#12">
                    <path d="M2.5,2.5 L10.5018149,2.5 C13.814521,2.5 16.5,5.19163546 16.5,8.50341653 L16.5,113.496583 C16.5,116.812179 13.8061783,119.5 10.5066963,119.5 L2.6985508,119.5" id="Line" stroke="#F8B62D"></path>
                    <circle id="Oval-3" fill="#F8B62D" cx="2.5" cy="2.5" r="2.5"></circle>
                    <circle id="Oval-3" fill="#F8B62D" cx="2.5" cy="119.5" r="2.5"></circle>
                    <path d="M17,61.7625 L43.5,61.7625" id="Line" stroke="#F8B62D"></path>
                </g>
            </g>
            <path d="M3.5,121.5 L3.5,0.5" id="Line" stroke="#F8B62D" stroke-linecap="square"></path>
        </g>
        <g id="Basic-Flowcharts-/-Big-/-Terminal" transform="translate(463.000000, 106.000000)">
            <g id="Terminal">
                <rect id="Rectangle-6" fill="#F9F9FA" x="0" y="0" width="160" height="60" rx="30"></rect>
                <text font-family="Roboto-Regular, Roboto" font-size="16" font-weight="normal" line-spacing="20" letter-spacing="-0.400000006" fill="#F8B62D">
                    <tspan x="64.9601563" y="35">Dine</tspan>
                </text>
            </g>
        </g>
        <g id="Basic-Flowcharts-/-Big-/-Terminal" transform="translate(232.000000, 106.000000)">
            <g id="Terminal">
                <rect id="Rectangle-6" fill="#F9F9FA" x="0" y="0" width="160" height="60" rx="30"></rect>
                <text font-family="Roboto-Regular, Roboto" font-size="16" font-weight="normal" line-spacing="20" letter-spacing="-0.400000006" fill="#F8B62D">
                    <tspan x="46.0578125" y="35">Heroshort</tspan>
                </text>
            </g>
        </g>
        <g id="Basic-Flowcharts-/-Big-/-Terminal" transform="translate(677.000000, 106.000000)">
            <g id="Terminal">
                <rect id="Rectangle-6" fill="#F9F9FA" x="0" y="0" width="160" height="60" rx="30"></rect>
                <text font-family="Roboto-Regular, Roboto" font-size="16" font-weight="normal" line-spacing="20" letter-spacing="-0.400000006" fill="#F8B62D">
                    <tspan x="62.6367188" y="35">Drink</tspan>
                </text>
            </g>
        </g>
        <g id="Basic-Flowcharts-/-Big-/-Terminal" transform="translate(892.000000, 106.000000)">
            <g id="Terminal">
                <rect id="Rectangle-6" fill="#F9F9FA" x="0" y="0" width="160" height="60" rx="30"></rect>
                <text font-family="Roboto-Regular, Roboto" font-size="16" font-weight="normal" line-spacing="20" letter-spacing="-0.400000006" fill="#F8B62D">
                    <tspan x="61.4648438" y="35">Event</tspan>
                </text>
            </g>
        </g>
        <g id="Basic-Flowcharts-/-Big-/-Terminal" transform="translate(1106.000000, 106.000000)">
            <g id="Terminal">
                <rect id="Rectangle-6" fill="#F9F9FA" x="0" y="0" width="160" height="60" rx="30"></rect>
                <text font-family="Roboto-Regular, Roboto" font-size="16" font-weight="normal" line-spacing="20" letter-spacing="-0.400000006" fill="#F8B62D">
                    <tspan x="38.7890625" y="35">Press Room</tspan>
                </text>
            </g>
        </g>
        <g id="Basic-Flowcharts-/-Big-/-Terminal" transform="translate(1320.000000, 106.000000)">
            <g id="Terminal">
                <rect id="Rectangle-6" fill="#F9F9FA" x="0" y="0" width="160" height="60" rx="30"></rect>
                <text font-family="Roboto-Regular, Roboto" font-size="16" font-weight="normal" line-spacing="20" letter-spacing="-0.400000006" fill="#F8B62D">
                    <tspan x="59.7070313" y="35">About</tspan>
                </text>
            </g>
        </g>
        <g id="#3" transform="translate(379.000000, 38.000000)">
            <path d="M2.5,2.5 L516.7,2.5" id="Line" stroke="#F8B62D"></path>
            <circle id="Oval-3" fill="#F8B62D" cx="2.5" cy="2.5" r="2.5"></circle>
            <circle id="Oval-3" fill="#F8B62D" cx="517.7" cy="2.5" r="2.5"></circle>
        </g>
        <g id="#3-copy" transform="translate(158.000000, 38.000000)">
            <path d="M2.5,2.5 L78.7,2.5" id="Line" stroke="#F8B62D"></path>
            <circle id="Oval-3" fill="#F8B62D" cx="2.5" cy="2.5" r="2.5"></circle>
            <circle id="Oval-3" fill="#F8B62D" cx="79.7" cy="2.5" r="2.5"></circle>
        </g>
    </g>
</svg>